/* XPM */
static char *result[] = {
/* columns rows colors chars-per-pixel */
"40 40 191 2 ",
"   c #090C08",
".  c #061207",
"X  c #061C06",
"o  c #0C180B",
"O  c #13170D",
"+  c #0E1514",
"@  c #042504",
"#  c #0A250B",
"$  c #162617",
"%  c #0D3C14",
"&  c #133515",
"*  c #193A18",
"=  c #1D331C",
"-  c #063A05",
";  c #1E1D23",
":  c #1A3B20",
">  c #262C23",
",  c #272F29",
"<  c #2C2922",
"1  c #233423",
"2  c #2A352A",
"3  c #263C27",
"4  c #353C36",
"5  c #0F420C",
"6  c #10460E",
"7  c #0C560B",
"8  c #174014",
"9  c #196019",
"0  c #197618",
"q  c #134020",
"w  c #2B452B",
"e  c #205620",
"r  c #255826",
"t  c #2D5630",
"y  c #384C37",
"u  c #226120",
"i  c #32782A",
"p  c #2B6937",
"a  c #346A33",
"s  c #40523F",
"d  c #434342",
"f  c #474D48",
"g  c #485044",
"h  c #475F49",
"j  c #4C5F4B",
"k  c #51594C",
"l  c #535D59",
"z  c #4A654C",
"x  c #5C665D",
"c  c #536F52",
"v  c #527A51",
"b  c #5A755B",
"n  c #666867",
"m  c #676868",
"M  c #6D6B6C",
"N  c #6A6567",
"B  c #706A6B",
"V  c #6B766D",
"C  c #71746B",
"Z  c #707F6E",
"A  c #736C74",
"S  c #776D7C",
"D  c #727475",
"F  c #757576",
"G  c #1E8E1C",
"H  c #1DB11F",
"J  c #398837",
"K  c #2C872A",
"L  c #29B22B",
"P  c #2FA430",
"I  c #42B03C",
"U  c #3C8445",
"Y  c #3DB540",
"T  c #409740",
"R  c #529C53",
"E  c #4DAF47",
"W  c #48B447",
"Q  c #57BA5A",
"!  c #6F816F",
"~  c #679B67",
"^  c #6F9374",
"/  c #749574",
"(  c #56A360",
")  c #6EB560",
"_  c #47C657",
"`  c #55D651",
"'  c #45C845",
"]  c #5FC660",
"[  c #5BD073",
"{  c #6BCC65",
"}  c #72C46C",
"|  c #6AD162",
" . c #63D661",
".. c #61C970",
"X. c #78DF76",
"o. c #79D175",
"O. c #7C7A83",
"+. c #7CA586",
"@. c #7EB982",
"#. c #79CA83",
"$. c #7DDA82",
"%. c #898F8B",
"&. c #809085",
"*. c #86918E",
"=. c #948D93",
"-. c #929D94",
";. c #80A98B",
":. c #92AE94",
">. c #9BA89C",
",. c #97B297",
"<. c #A0AA9C",
"1. c #A39DA8",
"2. c #9FA0A4",
"3. c #A7A7A9",
"4. c #A2A1A6",
"5. c #A7BFA8",
"6. c #AEBEAC",
"7. c #A9B9A7",
"8. c #ADB6B2",
"9. c gray75",
"0. c #B3B9B7",
"q. c #8ECC8E",
"w. c #83DD83",
"e. c #92CA94",
"r. c #98D897",
"t. c #82E283",
"y. c #8EE089",
"u. c #92E48E",
"i. c #98E597",
"p. c #9DE99A",
"a. c #99F092",
"s. c #A6E79B",
"d. c #9ADBA0",
"f. c #A7C1A8",
"g. c #ABC3A9",
"h. c #AFD6AD",
"j. c #B3C3B5",
"k. c #BEC1BB",
"l. c #BED6BC",
"z. c #A1E5A1",
"x. c #BCFBB9",
"c. c #C4C6BB",
"v. c #C3FAB9",
"b. c #BDCFCD",
"n. c #BBFFCD",
"m. c #C9D4C9",
"M. c #D9DCCE",
"N. c #CBDCD3",
"B. c #D0DFD1",
"V. c #C6FFC0",
"C. c #CEFFC1",
"Z. c #CFFFCE",
"A. c #D5FDCB",
"S. c #DBFFCD",
"D. c #DAE4DD",
"F. c #D0E1D1",
"G. c #C8F9D1",
"H. c #D9F2D5",
"J. c #D4FFD5",
"K. c #DCFFDD",
"L. c #DCFED4",
"P. c #E3FFD7",
"I. c #E3FFD8",
"U. c #E6F4DC",
"Y. c #DEE5E0",
"T. c #DDFEE2",
"R. c #DFF9E9",
"E. c #E2E5E3",
"W. c #E9E8E8",
"Q. c #F5EAEE",
"!. c #E3FDE5",
"~. c #E4F4EC",
"^. c #EAF3EB",
"/. c #E6FDEC",
"(. c #EBFCEC",
"). c #EAF8E2",
"_. c #F4F1EE",
"`. c #F5FDEB",
"'. c #FAFFED",
"]. c #FEEEFF",
"[. c #F5EDF6",
"{. c #EEFDF4",
"}. c #EEFEF9",
"|. c #F2F6F2",
" X c #FCF5F7",
".X c #F4FDF4",
"XX c #FBFDF5",
"oX c #F7F4F8",
"OX c #FEF5FD",
"+X c #F6FEFB",
"@X c #FEFEFE",
/* pixels */
"@X@X@X@X@X@X@X@X@X@X@X@X@X@X@X+XOXXX@XXX@XXX@X@X+X@X+X@X@X@X@X@X@X@X@X@X@X@X@X@X",
"@X@X@X@X@X@X@X@X@X@X@X@X@X@X@XOX+X@XXXXX.X@X.X@X@X+X@X+X@X@X@X@X@X@X@X@X@X@X@X@X",
"@X@X@X@X@X@X@X@X@X@X@X@X@X@X@X@X@XXX@XXX@X.X+XXX.X.X@X@X@X@X@X@X@XOX@X@X@X@X@X@X",
"@X@X@X@X@X@X@X@X@X@X@X@X@X@XOX@XXX@X@X@XXX@XXX.X.X@X.X@X@X@X@X@X@X@X@X@X@X@X@X@X",
"@X@X@X@X@X@X@X@X@X@X@X@X@X@X@X+XOX@X@X@X@X@X@X@X@XXX@XXX@X@X@X@X@X@X@X@X@X@X@X@X",
"@X@X@X@X@X@X@X@X@X@X@X@XOX@X@X@XOX@X@XOX@X@X@X@X@X@XXX@X@X@X@X@X@X@X@X@X@X@X@X@X",
"@X@X@X@X@X@X@X@X@XOX@X@X@X@X@X XoX@XOX].OX@XOX@X@XXX@XXXXX@X@X@X@X@X@X@X@X@X@X@X",
"@X@X@X@X@X@X@X@X X@X@XOX@X@X@X@XOXOXOXOXOXOX XOX@X@X@X@X@X@X@X@X@X@X@X@X@X@X@X@X",
"@X@X@X@X@X@X@X@XOX@X X@X@XXX|.+X+X@X@XOXOXOXOX@X+XOX@X@X@X@X@X@X@X@X@X@X@X@X@X@X",
"@X@X@X@X@X@XOX@X@XOXXXXX+X.X|..X@X XoXOXoX@X@X@XOX@XOX@X@X@X@X@X@X.X@X@X@X@X@X@X",
"@X@X@X@X@X@X@X@X@X X@X.X.X.X|..X.X{.{.+X|.@X@X XOX@XOX@X@X@X@X@X@X@X@X@X@X@X@X@X",
"@X@X@X@X@X@X@XOX@X|.@X@X.Xm.0.6.5.5.g.j.(.{.+X@X@X@X@X@X@X@X@X@X+X@X@X@X@X@X@X@X",
"+X@X@X@X@X@X@X@X+X X@XD.F.x $ $ X @ @ # l.B.(.@X@X@X@X@X@X@X@X@X@X+X@X@X@X@X@X@X",
"+X@X@X@X@X@X@X@X@XY.XX, . >.(.:.r 9 7 u # . j..X X@XOXOX@X@X@X@X@X@X@X@X@X@X@X@X",
"+X@X@X@X@X@X@X@X+X~.4 7.l.H.L.e.J J K J r.h.j 8.@X@X@X@X@X@X@X@X@X@X@X@X@X@X@X@X",
"OX@X@X@X@X@X@X+XD.x >.U.P.S.s.] W E E _ Q x.g.V 8.+X@X@XXX.X{.{.@X@X@X@X@X@X@X@X",
"XX X@X@X@X@X@X+XB.o H.I.S.s.|  .t.u.y.t.I } v.z *.@X@X@X'.`./.{.@X@XOX@X@X@X@X@X",
".X@X@X@XOX@X@XE.+.& e.s.p.{ | a.v.S.Z.x.X.I o.a c m.@X@X.X'.(..X@XOX@X@X@X@X@X@X",
"}.+X@X@X@XOX@X9.  t ( .._ _ u.C.L.(.!.V.x.` L 0 - Z +X+X.X+X@X@XOXOX@X@X@X@X@X@X",
"{.+X@X@X@X@X@X9.  c G.n.[ _ i.J.).+X~.L.v.` H G 6 Z @X@X@X@X@X@XOX@X@X@X@X@X@X@X",
"@XOX@X+X}.}.+Xk.< M.(.J.G.#.i.A.!.}.XXS.v.' L w.v F @XOX@X@XOX@X@X@X+X@X@X@X@X@X",
"OX@X@X+X}.{.{.j.> _..X!./.) R e.T.{.(.A.) P o.n.b A OXOX@X@X@XOX+X+X+X@X@X@X@X@X",
"@X+X+X+X+X+X{.j.$ +.!.!.,.v p U ~ ^ ^ ~ i 0 d.T.V F OXOX@X@XXXXX.X.X+X@X@X@X@X@X",
"+X+X@X@X@X+X+Xj.@ p ;.:.s = & % & & = % 5 e ^ F.S S OXOXOX@X.X.X.X.X@X@X@X@X@X@X",
"+X@X@XOX@X@X XN.j q : 3 g j 1 1 j y # z z w 2 O.O.1. X+X@XXX.X.X+X@X@X@X@X@X@X@X",
"OXOX@X@XOX@X@X@XM.,   > c.`.C C ^.7.: R.{.f   ; 2.@X@X@X'.'..X.X@XOX@X@X@X@X@X@X",
"OXOX@XXXXX@X@X@X@X_.O m.).).C F @X9., R.R.|.d 3.@X+X.X'.'.'..X+XOXOXOX@X@X@X@X@X",
"@X@XOXXXXX.X@X@XOXW.+ N.{.|.W.W.Q.Q.E.+X+X+Xd >.{.{..X.X'..X@X@XOXOX@X@X@X@X@X@X",
"@XOX@X@XXX.X@X@XOXoX0.l b.}..X_. X].[.oX|.x -.D..X.X.XXXXXXX@X@X+XOX@X@X@X@X@X@X",
"XX@X@X@X@X@X@XXXXX XOX4.D m n N B B N M m *.Y.+X.X@X@X@X@X@X@X@X@X@X@X@X@X@X@X@X",
"XX@X@XOX@X@X@X@XXX XOXOX=.A M m m N B B M W.+X+X@X@X@XOXOX@X@X@X@X+X@X@X@X@X@X@X",
"XX@X@X@X@X@XOX@XXX@X X@XOXOX@X@X|.XX@XOX+X@X@X X@X@X@XOX@X@X@X@X+X+X@X@X@X@X@X@X",
"@X@XXX@X@X@X@X@X@X@X@X@XoXXXXXXX@XXXXX@XOX@X@X@X@X@X@X@X@X@X@X@X@X+X@X@X@X@X@X@X",
"+X+XXXXX@X@X@X@X@X@X+X+X@X@X|.|.@XXX|.@X@XoX@X@X@X@X@X@X@X@X@X@X@X@X@X@X@X@X@X@X",
"@X@X@X@X@X@X@X@X@X@X@X@X@X@X@X@X@X@X@X@X@X@X@X@X@X@X@X@X@X@X@X@X@X@X@X@X@X@X@X@X",
"@X@X@X@X@X@X@X@X@X@X@X@X@X@X@X@X@X@X@X@X@X@X@X@X@X@X@X@X@X@X@X@X@X@X@X@X@X@X@X@X",
"@X@X@X@X@X@X@X@X@X@X@X@X@X@X@X@X@X@X@X@X@X@X@X@X@X@X@X@X@X@X@X@X@X@X@X@X@X@X@X@X",
"@X@X@X@X@X@X@X@X@X@X@X@X@X@X@X@X@X@X@X@X@X@X@X@X@X@X@X@X@X@X@X@X@X@X@X@X@X@X@X@X",
"@X@X@X@X@X@X@X@X@X@X@X@X@X@X@X@X@X@X@X@X@X@X@X@X@X@X@X@X@X@X@X@X@X@X@X@X@X@X@X@X",
"@X@X@X@X@X@X@X@X@X@X@X@X@X@X@X@X@X@X@X@X@X@X@X@X@X@X@X@X@X@X@X@X@X@X@X@X@X@X@X@X"
};
