/* XPM */
static char *result[] = {
/* columns rows colors chars-per-pixel */
"40 40 168 2 ",
"   c #141412",
".  c #181714",
"X  c #1B1916",
"o  c #1F1F1D",
"O  c #221B14",
"+  c #2E2216",
"@  c #26221D",
"#  c #3B2012",
"$  c #3E2A18",
"%  c #372314",
"&  c #272622",
"*  c #3B332B",
"=  c #373735",
"-  c #3F3E3C",
";  c #3D3B36",
":  c #5B0906",
">  c #45170D",
",  c #44190E",
"<  c #5C110A",
"1  c #640302",
"2  c #6A0404",
"3  c #6A0E0E",
"4  c #7D0F13",
"5  c #422A19",
"6  c #413122",
"7  c #4E3722",
"8  c #4E3E29",
"9  c #463A26",
"0  c #543E26",
"q  c #57382D",
"w  c #7F3030",
"e  c #574026",
"r  c #5A4227",
"t  c #56422B",
"y  c #4A433D",
"u  c #544436",
"i  c #57493D",
"p  c #644B2D",
"a  c #6D4F2F",
"s  c #6C4428",
"d  c #624D32",
"f  c #634F38",
"g  c #6C5635",
"h  c #65523C",
"j  c #745836",
"k  c #7E603D",
"l  c #4C4B4A",
"z  c #454542",
"x  c #5F554C",
"c  c #585856",
"v  c #5B5B5A",
"b  c #625140",
"n  c #665C4D",
"m  c #745F47",
"M  c #785F44",
"N  c #776145",
"B  c #726049",
"V  c #7D6440",
"C  c #6F6257",
"Z  c #75685D",
"A  c #89161C",
"S  c #831418",
"D  c #971718",
"F  c #A31C1E",
"G  c #8F1920",
"H  c #921A22",
"J  c #AF2021",
"K  c #AE2D2C",
"L  c #BF2423",
"P  c #B62528",
"I  c #A7302F",
"U  c #C0282B",
"Y  c #82673E",
"T  c #954D4D",
"R  c #935050",
"E  c #826343",
"W  c #886744",
"Q  c #876B41",
"!  c #8C6D44",
"~  c #816549",
"^  c #8E6B48",
"/  c #84694E",
"(  c #9B6E45",
")  c #907145",
"_  c #99774B",
"`  c #9D7C4B",
"'  c #836D55",
"]  c #997855",
"[  c #927251",
"{  c #A57E4F",
"}  c #A37E52",
"|  c #8F6763",
" . c #9F6363",
".. c #937C65",
"X. c #9F7976",
"o. c #A76B6B",
"O. c #AE7C7C",
"+. c #A58353",
"@. c #AB8456",
"#. c #AE8857",
"$. c #A6825C",
"%. c #AF875A",
"&. c #B68B5F",
"*. c #B88F5E",
"=. c #BA915F",
"-. c #99836C",
";. c #8E8175",
":. c #8E847B",
">. c #9C8A77",
",. c #B58C62",
"<. c #AF936B",
"1. c #BE9265",
"2. c #B99D78",
"3. c #B49A75",
"4. c #B7A07E",
"5. c #BAA17E",
"6. c #C59A6B",
"7. c #CA9C6B",
"8. c #C49866",
"9. c #D0A16F",
"0. c #D5A472",
"q. c #978E86",
"w. c #9B8F83",
"e. c #9C938A",
"r. c #989897",
"t. c #9E9D9C",
"y. c #B88C8C",
"u. c #A49B94",
"i. c #BD9494",
"p. c #BCA687",
"a. c #AAA39C",
"s. c #B6AFA9",
"d. c #B8B2AD",
"f. c #B6B5B5",
"g. c #B8B6B4",
"h. c #BFBEBE",
"j. c #A8A8A7",
"k. c #CEA980",
"l. c #C5A687",
"z. c #D5B088",
"x. c #DEB994",
"c. c #C8A6A6",
"v. c #C6A2A2",
"b. c #CCB3B2",
"n. c #DFC5AA",
"m. c #C6C1BC",
"M. c #E6CEB6",
"N. c #C1C0C1",
"B. c #C8C8C8",
"V. c #D5C7C6",
"C. c #D4D2CF",
"Z. c #D9D1CE",
"A. c #D7D4D1",
"S. c #DCDCDC",
"D. c #E0CDCD",
"F. c #EBDAC9",
"G. c #E1DEDC",
"H. c #EBE5DF",
"J. c #F0E4D9",
"K. c #EDECEC",
"L. c #EEE9E5",
"P. c #F2E9E9",
"I. c #F0F0EF",
"U. c #F5F3F2",
"Y. c #F9F6F6",
"T. c #F8F8F7",
"R. c #F8F7F8",
"E. c #FFFFFF",
/* pixels */
"E.E.E.E.E.E.E.E.E.E.E.E.E.E.E.E.E.E.E.E.E.E.E.E.E.E.E.E.E.E.E.E.E.E.E.E.E.E.E.E.",
"E.E.E.E.E.E.E.E.E.E.E.E.E.E.E.E.E.E.E.E.E.E.E.E.E.E.E.E.E.E.E.E.E.E.E.E.E.E.E.E.",
"E.E.E.E.E.E.E.E.E.E.E.E.E.E.E.E.E.E.E.E.E.E.E.E.E.E.E.E.E.E.E.E.E.E.E.E.E.E.E.E.",
"E.E.E.E.E.E.E.E.E.E.E.E.E.E.E.E.E.E.E.E.E.E.E.E.E.E.E.E.E.E.E.E.E.E.E.E.E.E.E.E.",
"E.E.E.E.E.E.E.E.E.E.E.E.E.E.E.E.E.E.E.E.E.E.E.E.E.E.E.E.E.E.E.E.E.E.E.E.E.E.E.E.",
"E.E.E.E.E.E.E.E.E.E.E.E.E.E.E.E.E.E.E.E.E.E.E.E.E.E.E.E.E.E.E.E.E.E.E.E.E.E.E.E.",
"E.E.E.E.E.E.E.E.E.E.E.E.E.E.E.E.E.E.E.E.E.E.E.E.E.E.E.E.E.E.E.E.E.E.E.E.E.E.E.E.",
"E.E.E.E.E.E.E.E.E.E.E.E.E.E.E.E.E.E.E.E.E.E.E.E.E.E.E.E.E.E.E.E.E.E.E.E.E.E.E.E.",
"E.E.E.E.E.E.E.E.E.E.E.E.E.E.E.R.a.u.u.u.u.u.s.E.E.E.E.E.E.E.E.E.E.E.E.E.E.E.E.E.",
"E.E.E.E.E.E.E.E.E.E.E.E.I.S.S.C.8 7 0 7 7 7 b S.S.S.U.E.E.E.E.E.E.E.E.E.E.E.E.E.",
"E.E.E.E.E.E.E.E.E.E.E.E.j.= = ; Q &.1.1.1.%.V = = = N.E.E.E.E.E.E.E.E.E.E.E.E.E.",
"E.E.E.E.E.E.E.E.E.E.E.E.r.    X 8 f ,.0.$.h 9       f.E.E.E.E.E.E.E.E.E.E.E.E.E.",
"E.E.E.E.E.E.E.E.E.E.E.E.f.- @ l l o M $.h & l l O z B.E.E.E.E.E.E.E.E.E.E.E.E.E.",
"E.E.E.E.E.E.E.E.E.E.E.E.T.s.i K.K.- X X X c K.G.$ C.T.E.E.E.E.E.E.E.E.E.E.E.E.E.",
"E.E.E.E.E.E.E.E.E.E.E.E.m.x y R.T.g.-.[ >.N.Y.K.6 C C.E.E.E.E.E.E.E.E.E.E.E.E.E.",
"E.E.E.E.E.E.E.E.E.E.E.A.;.e n R.R.g.l.0.l.N.T.K.f t w.G.E.E.E.E.E.E.E.E.E.E.E.E.",
"E.E.E.E.E.E.E.E.E.E.T.;.p +.<.I.R.- ..0.~ v Y.L.} ` r u.R.E.E.E.E.E.E.E.E.E.E.E.",
"E.E.E.E.E.E.E.E.E.E.q.N ` 7.6.4.U.8 ] 0./ v L.3.6.7._ m a.E.E.E.E.E.E.E.E.E.E.E.",
"E.E.E.E.E.E.E.E.E.E.Z k 8.0.9.1.M.' ,.0.} ..n.*.0.0.#.p :.E.E.E.E.E.E.E.E.E.E.E.",
"E.E.E.E.E.E.E.E.E.E.Z ! 9.0.0.1.1.1.1.1.1.1.1.1.0.0.#.p :.E.E.E.E.E.E.E.E.E.E.E.",
"E.E.E.E.E.E.E.E.E.E.Z j =.0.1.7 7 7 7 7 7 7 7 q 7.0.#.p :.E.E.E.E.E.E.E.E.E.E.E.",
"E.E.E.E.E.E.E.E.E.E.Z g +.+./ e.u.* O X O 8 u.r.E @.+.p :.E.E.E.E.E.E.E.E.E.E.E.",
"E.E.E.E.E.E.E.E.E.E.q.N ) Y h h.h.=     . l h.f.t ) Q B a.E.E.E.E.E.E.E.E.E.E.E.",
"E.E.E.E.E.E.E.E.E.E.R.;.p ` k o o .       X o & ) ` u t.T.E.E.E.E.E.E.E.E.E.E.E.",
"E.E.E.E.E.E.E.E.E.E.E.Z.;.r 0 + d g g g g g p + 0 r q.S.E.E.E.E.E.E.E.E.E.E.E.E.",
"E.E.E.E.E.E.E.E.E.E.V.v.| > , 5 @.p.p.p.p.2._ % , > O.v.Z.E.E.E.E.E.E.E.E.E.E.E.",
"E.E.E.E.E.E.E.E.E.R.R 2 2 2 : 5 7.J.U.U.U.F.&.# 1 1 2 2 o.U.E.E.E.E.E.E.E.E.E.E.",
"E.E.E.E.E.E.E.E.E. .K L U J S : +.z.x.x.x.k.( : A P L L I O.E.E.E.E.E.E.E.E.E.E.",
"E.E.E.E.E.E.E.E.E.w H L P P G 1 a Y ^ ^ ^ E s 2 H P U U D R E.E.E.E.E.E.E.E.E.E.",
"E.E.E.E.E.E.E.E.E.w S H H H A 1 u u u u u u q 1 H H H H 4 R E.E.E.E.E.E.E.E.E.E.",
"E.E.E.E.E.E.E.E.E.H 2 2 3 2 2 3 Z.G.G.G.G.G.b.1 2 3 2 2 2 T E.E.E.E.E.E.E.E.E.E.",
"E.E.E.E.E.E.E.E.E.v.y.y.y.y.y.i.Y.E.E.E.E.E.P.y.y.y.y.y.y.b.E.E.E.E.E.E.E.E.E.E.",
"E.E.E.E.E.E.E.E.E.E.E.E.E.E.E.E.E.E.E.E.E.E.E.E.E.E.E.E.E.E.E.E.E.E.E.E.E.E.E.E.",
"E.E.E.E.E.E.E.E.E.E.E.E.E.E.E.E.E.E.E.E.E.E.E.E.E.E.E.E.E.E.E.E.E.E.E.E.E.E.E.E.",
"E.E.E.E.E.E.E.E.E.E.E.E.E.E.E.E.E.E.E.E.E.E.E.E.E.E.E.E.E.E.E.E.E.E.E.E.E.E.E.E.",
"E.E.E.E.E.E.E.E.E.E.E.E.E.E.E.E.E.E.E.E.E.E.E.E.E.E.E.E.E.E.E.E.E.E.E.E.E.E.E.E.",
"E.E.E.E.E.E.E.E.E.E.E.E.E.E.E.E.E.E.E.E.E.E.E.E.E.E.E.E.E.E.E.E.E.E.E.E.E.E.E.E.",
"E.E.E.E.E.E.E.E.E.E.E.E.E.E.E.E.E.E.E.E.E.E.E.E.E.E.E.E.E.E.E.E.E.E.E.E.E.E.E.E.",
"E.E.E.E.E.E.E.E.E.E.E.E.E.E.E.E.E.E.E.E.E.E.E.E.E.E.E.E.E.E.E.E.E.E.E.E.E.E.E.E.",
"E.E.E.E.E.E.E.E.E.E.E.E.E.E.E.E.E.E.E.E.E.E.E.E.E.E.E.E.E.E.E.E.E.E.E.E.E.E.E.E."
};
