/* XPM */
static char *d4e7a866b98b4a97930fbea67117a1beBwelddOyQE0wRxoK[] = {
/* columns rows colors chars-per-pixel */
"40 40 210 2 ",
"   c #010226",
".  c #1F224B",
"X  c #3D3F4B",
"o  c #343A57",
"O  c #262D55",
"+  c #363B68",
"@  c #691846",
"#  c #55305D",
"$  c #5C284F",
"%  c #753269",
"&  c #7A3270",
"*  c #3D4146",
"=  c #3D414A",
"-  c #455072",
";  c #495679",
":  c #545375",
">  c #704F79",
",  c #5B647F",
"<  c #646C7B",
"1  c #6D737F",
"2  c #7E7D7D",
"3  c #9D1151",
"4  c #840544",
"5  c #AE1C64",
"6  c #B52474",
"7  c #CF157C",
"8  c #CF1A7F",
"9  c #D5147A",
"0  c #DC1278",
"q  c #EC057B",
"w  c #F6037A",
"e  c #FA037D",
"r  c #C62078",
"t  c #847F7E",
"y  c #7C817E",
"u  c #84807E",
"i  c #474C84",
"p  c #515C90",
"a  c #4E5C8C",
"s  c #7B5E89",
"d  c #5A6683",
"f  c #59669C",
"g  c #676387",
"h  c #716488",
"j  c #6C7484",
"k  c #667188",
"l  c #767E85",
"z  c #7A7E84",
"x  c #737A8B",
"c  c #7B7E8B",
"v  c #6B7799",
"b  c #727596",
"n  c #6C7CAD",
"m  c #7E79A4",
"M  c #FD0486",
"N  c #F60985",
"B  c #E70F88",
"V  c #EC2192",
"C  c #E23F99",
"Z  c #B95797",
"A  c #97709C",
"S  c #A17898",
"D  c #AA7AA8",
"F  c #CC5299",
"G  c #D55DA5",
"H  c #E474B9",
"J  c #7D8186",
"K  c #7C8188",
"L  c #7C8FD7",
"P  c #7E96F2",
"I  c #828381",
"U  c #878D93",
"Y  c #8A9195",
"T  c #9C989F",
"R  c #8889A0",
"E  c #949BA2",
"W  c #9C9EA4",
"Q  c #9397A4",
"!  c #8B96B9",
"~  c #9392B6",
"^  c #AA88A3",
"/  c #9CA1A3",
"(  c #9BA0A9",
")  c #96A5B7",
"_  c #A9ABB7",
"`  c #ADB6BF",
"'  c #BDBFBD",
"]  c #8B94C1",
"[  c #8A99D5",
"{  c #98A9C9",
"}  c #8EA2DF",
"|  c #95ABDD",
" . c #9BACDD",
".. c #98A8D5",
"X. c #A8A7CC",
"o. c #ADB4C1",
"O. c #A5B3C9",
"+. c #B3BCC3",
"@. c #BDBDC2",
"#. c #B5BDCC",
"$. c #AAB8D5",
"%. c #849AE3",
"&. c #8B9EE4",
"*. c #8399ED",
"=. c #8598EA",
"-. c #929FE4",
";. c #8396F4",
":. c #839BF2",
">. c #8D9BFA",
",. c #8BA2EC",
"<. c #9DAFEC",
"1. c #94ABE8",
"2. c #9EB7EF",
"3. c #9FB9EC",
"4. c #8DA4F3",
"5. c #94AAF3",
"6. c #99ABF8",
"7. c #9BB5FC",
"8. c #AAAEE3",
"9. c #A2B4E5",
"0. c #A6BBE7",
"q. c #A4BBEC",
"w. c #A9BCEC",
"e. c #A8B8E7",
"r. c #B1BDED",
"t. c #A2AFF0",
"y. c #A6BEF2",
"u. c #A3BBFD",
"i. c #A8B8F8",
"p. c #B1BCF3",
"a. c #B5BCF7",
"s. c #C0BFC1",
"d. c #D8A9D2",
"f. c #CFBCF0",
"g. c #BCC0C2",
"h. c #BAC4CF",
"j. c #B1C1C3",
"k. c #BBC4D8",
"l. c #ABC3ED",
"z. c #AECBEC",
"x. c #B5C8E6",
"c. c #B2C6EC",
"v. c #BCC2EB",
"b. c #B3C9EC",
"n. c #BCCCEC",
"m. c #B4C7E4",
"M. c #A7C3F2",
"N. c #ADC5F4",
"B. c #AECAF4",
"V. c #ADC5FB",
"C. c #AEC9FA",
"Z. c #A5C7F8",
"A. c #B2C6F5",
"S. c #BAC3F7",
"D. c #B1C9F4",
"F. c #BCCDF2",
"G. c #B1C6FB",
"H. c #B1C9FA",
"J. c #BBCCFA",
"K. c #AED0FA",
"L. c #BDD3F8",
"P. c #BCD1EA",
"I. c #C0C6CF",
"U. c #CCCDD2",
"Y. c #C2CCDA",
"T. c #DBDBDB",
"R. c #D0D8DB",
"E. c #C1CFEF",
"W. c #C3CEE2",
"Q. c #C3D3ED",
"!. c #C9DAED",
"~. c #DCDCE1",
"^. c #C0CEF6",
"/. c #C2D3F4",
"(. c #CBD5F7",
"). c #CCDBF3",
"_. c #CAD9FF",
"`. c #C7D4FD",
"'. c #D2DEF2",
"]. c #D3DFF8",
"[. c #D8E5F7",
"{. c #DDEBFA",
"}. c #D4E5F8",
"|. c #EBEDEC",
" X c #E6E7E9",
".X c #F9FAED",
"XX c #E2EDFD",
"oX c #E1E7FF",
"OX c #FAECFE",
"+X c #E4F0FE",
"@X c #EAF3FF",
"#X c #F7F6F4",
"$X c #F7FAF7",
"%X c #FCFCF5",
"&X c #F6FEFC",
"*X c #FAFCFA",
"=X c #FDFDFA",
"-X c #FEFDF9",
";X c #FBFAFD",
":X c #FDFBFD",
">X c #FDFDFD",
",X c #FFFFFD",
"<X c #FEFDFF",
"1X c #FFFFFE",
"2X c #FFFEFF",
"3X c white",
"4X c #FEFEFE",
"5X c #FDFEFE",
"6X c #FEFEFD",
"7X c #FAF7F9",
/* pixels */
"3X3X3X3X3X3X3X3X3X3X3X3X<X<X3X<X<X<X<X;X7X;XW 2 I 2 t t t t 2 #X7X*X>X3X3X3X3X=X",
"3X3X3X3X3X3X3X3X3X3X3X3X<X3X3X3X<X=X=X<X<X;X=X3X<X=X<X<X=X=X3X7X3X=X>X3X3X3X3X3X",
"3X3X3X3X3X3X3X3X3X;X3X3X=X=X%X=X%X%X%X=X=X3X7X=X=X%X3X<X3X<X<X3X3X3X3X3X3X3X3X3X",
"3X3X3X3X3X3X3X3X3X;X;X*X7X%X%X%X|.' ' ' ' ' |.3X=X%X7X3X<X7X<X3X3X3X3X3X3X3X3X3X",
"3X3X3X3X3X3X3X3X3X7X3X*X$X*X@.I I z z z l z z I ' *X7X3X;X3X3X3X3X3X3X=X=X3X3X3X",
"3X3X3X3X3X3X3X3X7X=X=X7X/ z o.XX].F.F././.E.[.{.` K J T.7X*X3X3X3X3X3X=X3X=X3X3X",
"3X3X3X3X3X>X3X3X3X7X' l W.`.9.1.e.N.C.G.A.A.c.c.n.L.oXE z >X3X<X<X<X3X=X3X3X3X3X",
"3X3X3X3X>X;X3X*X3XT.E n.t.,.1.y.V.V.C.C.C.C.C.C.C.B.b.E.XXK ;X7X=X3X3X3X3X3X3X3X",
"3X3X3X3X3X=X=X7X>X+.v.,.,.2.B.H.G.C.A.C.G.C.G.B.B.C.A.b.n.Y.W 7X3X*X3X3X3X3X3X3X",
"3X3X3X=X=X=X3X XY $.&.>.Z.B.z.G.G.H.C.H.A.B.H.H.B.H.G.H.c.n.Y.Y |.*X7X3X3X3X3X3X",
">X>X3X=X%X%X<X@.+.p.;.6.V.z.z.G.G.G.H.A.C.A.G.N.H.H.C.V.D.b.n.Y./ 3X=X3X3X3X3X3X",
">X3X3X3X%X7X~.Q F.*.;.u.C.N.G.V.A.G.H.H.N.G.C.A.N.G.V.C.C.A.b.!.E T.=X3X3X3X3X3X",
">X>X3X=X%X=Xz k.<.P 7.V.C.C.V.J.w.A.N.H.H.N.A.A.H.H.G.C.C.C.B.P.Y.z 7X3X3X3X3X3X",
">X3X3X=X%X*XX (.4.:.C.B.B.H.G.A.w.e.N.H.G.A.G.N.A.| A.A.G.C.C.z.}.= 7X3X3X3X3X3X",
"3X3X3X3X%X/ h.c.*.4.B.B.C.H.A.A.t.p 9.D.F.A.N.N.a ..b.D.H.C.C.D.n.I.W 3X3X3X=X3X",
"3X%X%X=X%Xu @Xt.;.,.B.l.G.G.D.A.V.f . k 8.8.] O + y.A.A.A.H.N.H.F.XXI =X%X=X%X%X",
"3X=X7X=X.Xy XXi.:.4.C.z.G.C.D.A.u.n  .k     o }.- u.C.A.A.G.G.M.b.).l %X<X7X=X%X",
"@.z x l J J Q.&.;.4.B.D.G.N.D.D.u.K $.j { { d {.; q.C.A.A.H.C.A.b.).K y K K c s.",
"1 { `._.+X* { ,.:.7.H.D.G.G.D.B.u.n j.k k.z.k }.- w.G.A.A.H.C.Z.D.Q.E R.(.F...< ",
"j { t.G.b.!.) L :.u.B.N.G.G.D.D.G.1.k v D.H.] d ! G.C.A.A.B.C.C.z.m.{., N.t...j ",
"W { &.6.V.b.L.5.P 7.H.H.G.G.A.B.C.V.M.l.N.C.A.0.N.G.G.A.A.H.C.C.B.m.{.d 2.[ ..( ",
">Xo 1.%.6.H.C.4.:.u.B.D.G.G.B.A.C.V.Z.B.A.M.H.w.C.C.C.G.A.H.B.C.B.b.{.; [ | o >X",
">Xg.! ,.*.G.y.P P u.K.D.G.G.H.z.C.G.r.g ~ f.X.d ~ G.C.H.A.B.Z.C.B.b.{.i [ ! j.=X",
"=X&Xj | %.i.u.,.*.u.B.D.G.H.D.b.C.{ $ OX^ @ S OX@ v.H.H.A.B.Z.K.B.c.{.i  .x &X.X",
">X&XU.R X.9.J.:.:.7.C.B.V.V.H.D.H.A 5 H 6 q C Z 3 O.G.G.B.B.H.M.S.).l _ R U.$X=X",
">X>X*XU.Q b _.4.;.4.C.B.V.V.A.B.p.& 9 V B M N B 9 h G.B.B.B.C.G.D.Q.l E U.<X7X3X",
"&X*X$X#X*XK +X2.:.4.C.B.C.N.A.H.p.% 0 w M e N w 9 g A.G.B.B.C.G.b.}.J 3X<X3X7X3X",
"3X7X$X.X%XK XXq.*.4.C.N.C.N.A.H.a.% 0 e e e w w 0 h A.G.B.C.N.J.F.+XJ 3X;X7X3X<X",
"<X3X=X.X%X' E c.%.4.C.C.z.z.H.G.a.& 8 w e M w q 8 s S.A.C.C.H.c./.E ' 7X3X3X3X3X",
"<X3X3X=X%X3XX Q.} P V.V.D.b.H.V.i.# d.F 7 @ 6 G D g D.C.B.H.A.n.[.* *X3X=X=X3X3X",
"<X3X3X<X=X7XW #.3.[ 6.G.B.z.G.C.Z.A , > % D > > - { D.A.C.G.A.n.h.W =X=X=X3X3X3X",
"=X3X3X3X=X3X XW n.1.P Z.H.z.G.C.C.M.M.y.f.a.S.r.N.B.B.G.G.V.c.}.U |.%X=X3X3X3X3X",
"%X=X3X3X=X=X#X' j.2.=.4.V.N.G.G.D.D.C.N.A.C.Z.H.A.C.B.C.G.A.^.h._ =X%X3X3X3X3X3X",
"3X3X3X3X3X3X3X3X/ ) -.=.u.V.H.A.A.H.B.H.H.B.H.A.H.H.C.N.D.n.` W =X=X7X3X3X3X3X3X",
"3X3X3X3X3X3X3X3X*X+.(.1.} 1.M.G.H.C.C.C.C.H.C.C.H.C.B.z.P.o.@.<X7X#X*X3X3X3X3X3X",
"3X3X3X3X3X3X3X=X=X%Xc oXL.| | 1.u.V.H.B.B.A.A.D.D.b.Q.[.Q @.7X=X*X3X=X3X3X3X3X3X",
"3X3X3X3X3X3X3X3X%X%X~.c ) !.k.l.q.w.D.D.c.n.F.n./.].` U _ %X=X3X3X7X>X>X3X3X3X3X",
"3X3X3X3X3X3X3X3X=X%X3X3XU.Y Y ` #.'.'.].'.'.#.o.Q z I.|.3X%X=X=X3X3X>X3X3X3X3X3X",
"3X3X3X3X3X3X3X3X3X3X=X=X=X%XT.g.T = = X X X W s.T.<X=X=X=X=X=X3X3X3X3X3X3X3X3X3X",
"3X3X3X3X3X3X3X3X3X3X3X=X%X%X=X=X=X=X3X3X=X=X*X7X3X=X<X<X3X3X3X3X3X3X3X3X3X3X3X3X"
};
