/* XPM */
static char *result[] = {
/* columns rows colors chars-per-pixel */
"40 40 195 2 ",
"   c #DC0A16",
".  c #D70E19",
"X  c #DA0C19",
"o  c #D70E17",
"O  c #CF131C",
"+  c #D21317",
"@  c #D1121B",
"#  c #DD121B",
"$  c #DD181B",
"%  c #E40B14",
"&  c #E90B13",
"*  c #E51315",
"=  c #E51619",
"-  c #E51A1D",
";  c #E81A1E",
":  c #CD1C22",
">  c #D51522",
",  c #E41B21",
"<  c #E41B24",
"1  c #D4222A",
"2  c #DD2429",
"3  c #DD2427",
"4  c #D22C34",
"5  c #DD2A30",
"6  c #DF3336",
"7  c #DD393C",
"8  c #DB333D",
"9  c #E2222D",
"0  c #E02324",
"q  c #E32C31",
"w  c #E02734",
"e  c #E33639",
"r  c #AF612B",
"t  c #A77821",
"y  c #D85718",
"u  c #EA6613",
"i  c #EC6915",
"p  c #CD3F45",
"a  c #DD3C42",
"s  c #D53D40",
"d  c #E13C41",
"f  c #CC4045",
"g  c #DC4347",
"h  c #D6444B",
"j  c #CE4C50",
"k  c #DA4F54",
"l  c #D5595C",
"z  c #E35B5C",
"x  c #E25356",
"c  c #E64748",
"v  c #DA6054",
"b  c #D05F63",
"n  c #DB666B",
"m  c #D86668",
"M  c #D87476",
"N  c #E26465",
"B  c #E46D6C",
"V  c #E86E72",
"C  c #E47A7B",
"Z  c #E57677",
"A  c #BD8D14",
"S  c #B3841B",
"D  c #BD8D1A",
"F  c #BE9129",
"G  c #B79332",
"H  c #CD9A07",
"J  c #C4930F",
"K  c #CD9909",
"L  c #C9970A",
"P  c #D19D0B",
"I  c #C39214",
"U  c #C3941D",
"Y  c #CB9C16",
"T  c #D6A306",
"R  c #DAA80A",
"E  c #CFA112",
"W  c #D6A411",
"Q  c #EBAF05",
"!  c #E4AD09",
"~  c #EAB105",
"^  c #E7B209",
"/  c #E9B209",
"(  c #E4B007",
")  c #F3B904",
"_  c #C39625",
"`  c #C59826",
"'  c #C09528",
"]  c #C9A239",
"[  c #F5C716",
"{  c #FBCE23",
"}  c #F5C638",
"|  c #F9D33A",
" . c #B79D55",
".. c #AB9760",
"X. c #BDA463",
"o. c #C3A047",
"O. c #ECB45F",
"+. c #E7807F",
"@. c #C2AD78",
"#. c #E3C04A",
"$. c #FACF46",
"%. c #F3D55C",
"&. c #DBC26A",
"*. c #F3DB68",
"=. c #F7DF79",
"-. c #F9E56A",
";. c #E67D81",
":. c #999B9D",
">. c #AEA088",
",. c #BEB499",
"<. c #B2B1AB",
"1. c #AFB1B4",
"2. c #B4B3B4",
"3. c #DD8888",
"4. c #DF9C9B",
"5. c #DD9694",
"6. c #E68484",
"7. c #E28C89",
"8. c #E8898B",
"9. c #EB8F91",
"0. c #EB9B9A",
"q. c #E59697",
"w. c #C8B78F",
"e. c #DEAAA7",
"r. c #C0B7A9",
"t. c #C5BEB1",
"y. c #E6A4A5",
"u. c #E9A8A7",
"i. c #F1ADAD",
"p. c #E4BCB8",
"a. c #EAB9B7",
"s. c #F3BEBD",
"d. c #CEC19A",
"f. c #D7C89E",
"g. c #F5DE8D",
"h. c #F1D984",
"j. c #E8D599",
"k. c #FBEB8C",
"l. c #FEE99E",
"z. c #DAD1AC",
"x. c #C7C3B9",
"c. c #D8D2BD",
"v. c #E2D1A1",
"b. c #EAC0BD",
"n. c #F9EDA2",
"m. c #FAF3A2",
"M. c #FDF2B7",
"N. c #BDBEC1",
"B. c #EDBFC1",
"V. c #C7C8C9",
"C. c #D0CDC7",
"Z. c #D3D1CC",
"A. c #CDCFD2",
"S. c #D6D6D3",
"D. c #DDDBD5",
"F. c #ECC4C3",
"G. c #E7C9C7",
"H. c #F3C5C4",
"J. c #F4CBCB",
"K. c #E4D2CE",
"L. c #E5D9CA",
"P. c #F2D0CE",
"I. c #E5D6D3",
"U. c #E2DAD5",
"Y. c #E5DCDA",
"T. c #EBDDDA",
"R. c #EBD7D5",
"E. c #F5D5D4",
"W. c #F7DAD8",
"Q. c #EFE6C1",
"!. c #F1E5C2",
"~. c #FCF4C3",
"^. c #E5E0DC",
"/. c #E9E0DB",
"(. c #F4EBD5",
"). c #F7F1DC",
"_. c #FBF8D0",
"`. c #DCDEE2",
"'. c #E5E3E2",
"]. c #EAE4E3",
"[. c #ECEBEB",
"{. c #EEE9E5",
"}. c #F6E3E2",
"|. c #FAE4E3",
" X c #F9E8E7",
".X c #FBEBEB",
"XX c #F4EAEB",
"oX c #FDFBED",
"OX c #F9F4E5",
"+X c #EDEDF0",
"@X c #F3F3F3",
"#X c #FDF5F4",
"$X c #FCFBF5",
"%X c #F5F6F9",
"&X c #FFFFFF",
/* pixels */
"&X&X&X&X&X&X&X&X&X&X&X&X&X&X&X&X&X&X&X&X&X&X&X&X&X&X&X&X&X&X&X&X&X&X&X&X&X&X&X&X",
"&X&X&X&X&X&X&X&X&X$X~.M._.oX&X&X&X&X&X&X&X&X&X&X&X&X&X&X&X&X&X&X&X&X&X&X&X&X&X&X",
"&X&X&X&X&X&X&X&X!.#.[ | k.m.M.&X&X&X&X&X&X&X&X&X&X&X&X&X&X&X&X&X&X&X&X&X&X&X&X&X",
"&X&X&X&X&X&X&X$X] T ~ } l.M.-.~.&X&X&X&X&X&X&X&X&X&X&X&X&X&X&X&X&X&X&X&X&X&X&X&X",
"&X&X&X&X&X&X&X(.D J P ! } $.{ =.&X&X&X&X&X&X&X&X&X&X&X&X&X&X&X&X&X&X&X&X&X&X&X&X",
"&X&X&X&X&X&X&X(.U D A L P ! Q h.&X&X&X&X&X&X&X&X&X&X&X&X&X&X&X&X&X&X&X&X&X&X&X&X",
"&X&X&X&X&X&X&X&X&.I D S S S o.).$X#X.X|.|. X X.X#X#X&X&X&X&X&X&X&X&X&X$X&X&X&X&X",
"&X&X&X&X&X&X&X&XOXj.D S t r v z c e q 9 < 9 9 5 a a k l n M ;.;.Z V N q.&X&X&X&X",
"&X&X&X&X&X&X&X&X&X).F t S y = = = * * % % X X   X X O O O . o   % % N  X&X&X&X&X",
"&X&X&X&X&X&X&X&X&X).F I / u ; ; ; = d q.T.].T.R.e.m : O O O o   < 9.$X&X&X&X&X&X",
"&X&X&X&X&X&X&X&X&X).F K Q u - ; - N  X+X+X[.'.'.Y.I.e.p O @ o : s.&X&X&X&X&X&X&X",
"&X&X&X&X&X&X&X&X&X).F K ~ u , - 6.#X}.k B.[.].T.l M I.K.j @ 4 H.&X&X&X&X&X&X&X&X",
"&X&X&X&X&X&X&X&X&X).F K ~ u - d OX$X6.= q y.P.n   1 p.U.p.f @ a J.&X&X&X&X&X&X&X",
"&X&X&X&X&X&X&X&X&X)._ K ~ u , 8.&X X6 % % 2 g X   o M I./.q..   5 u.&X&X&X&X&X&X",
"&X&X&X&X&X&X&X&X&X)._ K Q u 3 H.$X0.* 7 8.X   8 7.@ : 4.Y.G.1   & = B |.&X&X&X&X",
"&X&X&X&X&X&X&X&X&X)._ K Q u 6 E.W.e * C {.7.7 p.G.7 @ f T.R.4   & * = g @X&X&X&X",
"&X&X&X&X&X&X&X&X&X)._ H ~ u 5 J.;.$ 3 F.+X{.T.^.Y.3.O + 4.K.1   & = 6 i.&X&X&X&X",
"&X&X&X&X&X&X&X&X&X)._ H ~ u , i.Z , B XX[.{.'.Y.Y.p.1 : 5.y.@ % & c E.&X&X&X&X&X",
"&X&X&X&X&X&X&X&X&X)._ H Q u ; z .Xu.b.@X+X[.'.'.Y.I.M e.K.l . X N W.&X&X&X&X&X&X",
"&X&X&X&X&X&X&X&X&X)._ H Q i , ; 0.$X$X@X[.{.'.Y.U.U.D.U.b O > C $X&X&X&X&X&X&X&X",
"&X&X&X&X&X&X&X&X&X)._ H Q i , ; 2 C  X@X[.{.'.Y.U.I.p.m O O 4 H.&X&X&X&X&X&X&X&X",
"&X&X&X&X&X&X&X&X&X)._ H ~ i ; , = = 2 N u.B.F.a.3.j O O . O X > i.&X&X&X&X&X&X&X",
"&X&X&X&X&X&X&X&X&X)._ H ~ i ; ; ; = * * % > < X   o . @ @ O . X < V  X&X&X&X&X&X",
"&X&X&X&X&X&X&X&X&X)._ H ~ i , , - $ $ $ # #       . @ @ @ . . % & = x J.&X&X&X&X",
"&X&X&X&X&X&X&X&X&X)._ H / O.H.W. X#X#X#X$X#X#X.XT.E.b.u.7.M n b B +.0.F.&X&X&X&X",
"&X&X&X&X&X&X&X&X&X).` H / g.&X&X&X&X&X&X&X&X&X&X&X&X&X&X&X&X&X&X&X&X&X&X&X&X&X&X",
"&X&X&X&X&X&X&X&X&X).` H ~ g.&X&X&X&X&X&X&X&X&X&X&X&X&X&X&X&X&X&X&X&X&X&X&X&X&X&X",
"&X&X&X&X&X&X&X&X&X).` H ^ g.&X&X&X&X&X&X&X&X&X&X&X&X&X&X&X&X&X&X&X&X&X&X&X&X&X&X",
"&X&X&X&X&X&X&X&X&X).` H / g.&X&X&X&X&X&X&X&X&X&X&X&X&X&X&X&X&X&X&X&X&X&X&X&X&X&X",
"&X&X&X&X&X&X&X&X&X).` K ^ g.&X&X&X&X&X&X&X&X&X&X&X&X&X&X&X&X&X&X&X&X&X&X&X&X&X&X",
"&X&X&X&X&X&X&X&X&X).` K ^ g.&X&X&X&X&X&X&X&X&X&X&X&X&X&X&X&X&X&X&X&X&X&X&X&X&X&X",
"&X&X&X&X&X&X&X&X&X).` K / g.&X&X&X&X&X&X&X&X&X&X&X&X&X&X&X&X&X&X&X&X&X&X&X&X&X&X",
"&X&X&X&X&X&X&X&X&X).` K / g.&X&X&X&X&X&X&X&X&X&X&X&X&X&X&X&X&X&X&X&X&X&X&X&X&X&X",
"&X&X&X&X&X&X&X&X$Xc._ P / k.&X&X&X&X&X&X&X&X&X&X&X&X&X&X&X&X&X&X&X&X&X&X&X&X&X&X",
"&X&X&X&X&X&X&X&X[.<.,.d.z.U.+X&X&X&X&X&X&X&X&X&X&X&X&X&X&X&X&X&X&X&X&X&X&X&X&X&X",
"&X&X&X&X&X%X'.'.S.2.2.N.A.`.+X%X$X&X&X&X&X&X&X&X&X&X&X&X&X&X&X&X&X&X&X&X&X&X&X&X",
"&X&X&X&X@XS.V.1.:.2.V.A.`.[.%X%X@X+XoX&X&X&X&X&X&X&X&X&X&X&X&X&X&X&X&X&X&X&X&X&X",
"&X&X&XOX..>.r.t.x.x.C.A.S.D.D.D.(.c.*.n.&X&X&X&X&X&X&X&X&X&X&X&X&X&X&X&X&X&X&X&X",
"&X&X&X!.I G  .X.X.w.w.w.d.f.v.j.h.%.[ *.&X&X&X&X&X&X&X&X&X&X&X&X&X&X&X&X&X&X&X&X",
"&X&X&X!.J I I D D I E E W W ( ^ ~ ~ ) %.&X&X&X&X&X&X&X&X&X&X&X&X&X&X&X&X&X&X&X&X"
};
