/* XPM */
static char *_ccfd2d1a7d24a32f33f3130087fb1f2GppZ0bUSrqfFd9KU[] = {
/* columns rows colors chars-per-pixel */
"40 40 114 2 ",
"   c white",
".  c #4B4B4B",
"X  c #99703F",
"o  c #505050",
"O  c #8F214C",
"+  c #A42B49",
"@  c #565656",
"#  c #8C214B",
"$  c #CA3357",
"%  c #EC3364",
"&  c #5B5B5B",
"*  c #88214A",
"=  c #EA3264",
"-  c #FF3868",
";  c #E93264",
":  c gray13",
">  c #AD2158",
",  c #AF8F68",
"<  c #542135",
"1  c #CB295E",
"2  c #B2936E",
"3  c #CF9F7D",
"4  c #572136",
"5  c #CD2A5E",
"6  c #824F12",
"7  c #FF9388",
"8  c #5B2138",
"9  c #FF9387",
"0  c gray51",
"q  c #C8B297",
"w  c #B95A34",
"e  c #888888",
"r  c #984743",
"t  c #98980F",
"y  c #3C6891",
"u  c #553A19",
"i  c #988076",
"p  c #C5AE92",
"a  c #8D8D8D",
"s  c #934541",
"d  c #8D4440",
"f  c #FFB231",
"g  c yellow",
"h  c #939310",
"j  c #114E8D",
"k  c #3F678C",
"l  c #BF8E67",
"z  c #937B73",
"x  c #C2A98C",
"c  c #939393",
"v  c #50371A",
"b  c #FFB52F",
"n  c #8D8D11",
"m  c #105193",
"M  c #533919",
"N  c #C2926B",
"B  c #C2A98B",
"V  c #FF6860",
"C  c #4E361A",
"Z  c #FFB92C",
"A  c #888812",
"S  c #1E244E",
"D  c #882C42",
"F  c #954A70",
"G  c #BC443A",
"H  c #C5AE91",
"J  c #9E4944",
"K  c #583B19",
"L  c #573B19",
"P  c #9E9E0E",
"I  c #822B40",
"U  c #2B4853",
"Y  c #274C89",
"T  c #A8557B",
"R  c #DB2E61",
"E  c gray49",
"W  c #49341B",
"Q  c #7D2A3E",
"!  c #DD2F61",
"~  c #387A93",
"^  c #53A2A9",
"/  c #47331B",
"(  c #DF2F62",
")  c #80446F",
"_  c #529FA8",
"`  c #7ADAC9",
"'  c #5595AD",
"]  c #B3936E",
"[  c #782467",
"{  c #82416D",
"}  c #509DA7",
"|  c #3D699C",
" . c #83416D",
".. c #727272",
"X. c #1A2882",
"o. c #64BAB7",
"O. c #64B9B7",
"+. c #4D98A4",
"@. c #5661A3",
"#. c #30648F",
"$. c #69C1BB",
"%. c #63B0B8",
"&. c #31668F",
"*. c #4B569D",
"=. c #32698F",
"-. c #32688F",
";. c #D5D5D5",
":. c #2E2F6D",
">. c #1B2770",
",. c gray86",
"<. c #31291F",
"1. c #754914",
"2. c gray25",
"3. c #3A3A3A",
/* pixels */
"                                                                                ",
"                                                                                ",
"                                                                                ",
"                                                                                ",
"                                                                                ",
"                                                                                ",
"                                                                                ",
"                                            . . . X                             ",
"                                        o o O O O + o o                         ",
"                                      @ # $ % % % % $ # @                       ",
"                                    & * = - - - - - - ; * &                     ",
"                                    : > - - - - - - - - > :                     ",
"                                    : > - - - - - - - - > :                     ",
"                                    : > - - - - - - - - > :                     ",
"                                  , : < 1 - - - - - - 1 < : ,                   ",
"                                2 3 : : 4 5 5 5 5 5 5 4 : : 3 2                 ",
"                                6 7 : : : 8 8 8 8 8 8 : : : 9 6                 ",
"                  0 0 0 0 0 0   q w : : : : : : : : : : : : w q                 ",
"                e r r r t t t e e y u i : : : : : : : : i u p                   ",
"              a s d d d f f g h h j k l z : : : : : : z l x                     ",
"            c d s v v v s s b g g n m M N d : : : : d N 6 B                     ",
"            : V : 6 6 6 C C r Z Z Z A A u r S D D S F G G u H                   ",
"            : J : K K K K L : J J J P P I U Y T T Y Y R - I K q                 ",
"            E E E E E E E E E E W : Q 8 ! ~ ^ ^ ^ ^ ~ > ! - : 6                 ",
"                                2 / ( > ) _ ` ' ' ` _ ) > ( : ]                 ",
"                                  , [ { } ` ` | | ` ` }  .[ ..                  ",
"                                    X.~ o.o.o.` ` o.o.O.~ X.                    ",
"                                    X.~ +.+.~ ` ` ~ +.+.~ X.                    ",
"                                    X.~ ` ` ~ ` ` ~ ` ` ~ X.                    ",
"                                    @.#.$.$.~ ` $.~ $.$.#.@.                    ",
"                                      X.~ ~ ~ %.&.~ ~ ~ X.                      ",
"                                      *.=.=.-.X.X.=.=.-.*.                      ",
"                                      ;.:.:.:.>.>.:.:.:.;.                      ",
"                                    ,.<.6 6 6 : : 6 6 6 <.,.                    ",
"                                    : 1.1.1.1.2.2.1.1.1.1.:                     ",
"                                    3.3.3.3.3.    3.3.3.3.3.                    ",
"                                                                                ",
"                                                                                ",
"                                                                                ",
"                                                                                "
};
