/* XPM */
static char *result[] = {
/* columns rows colors chars-per-pixel */
"40 40 189 2 ",
"   c #2D271F",
".  c #39391E",
"X  c #232221",
"o  c #2D2523",
"O  c #2C2A2A",
"+  c #3A222C",
"@  c #3B2A29",
"#  c #332728",
"$  c #3B3939",
"%  c #3D3522",
"&  c #5B3C1A",
"*  c #4C351C",
"=  c #42272C",
"-  c #553528",
";  c #4F2133",
":  c #583532",
">  c #50303A",
",  c #743D3A",
"<  c #6D2E3C",
"1  c #674216",
"2  c #67451C",
"3  c #7C4C14",
"4  c #7D521A",
"5  c #48403D",
"6  c #6B4020",
"7  c #69423E",
"8  c #785325",
"9  c #7D6332",
"0  c #1E265E",
"q  c #1B3B5C",
"w  c #3C355C",
"e  c #413758",
"r  c #7B2343",
"t  c #224862",
"y  c #474645",
"u  c #584C47",
"i  c #535353",
"p  c #5D5B5A",
"a  c #68564C",
"s  c #705742",
"d  c #6A5C58",
"f  c #715F56",
"g  c #5E587A",
"h  c #4E6B7C",
"j  c DimGray",
"k  c #796B6C",
"l  c #7B6F73",
"z  c #747474",
"x  c #87343E",
"c  c #824F12",
"v  c #835115",
"b  c #8B5118",
"n  c #83561C",
"m  c #94551F",
"M  c #8C5D24",
"N  c #8B463D",
"B  c #9B5031",
"V  c #A9503F",
"C  c #976B37",
"Z  c #956C2B",
"A  c #CA5D3F",
"S  c #D46B3E",
"D  c #882A43",
"F  c #AA354B",
"G  c #A72553",
"H  c #A8274F",
"J  c #CB2D5C",
"K  c #9E4944",
"L  c #B35754",
"P  c #9B7241",
"I  c #9A7F52",
"U  c #946D44",
"Y  c #A27646",
"T  c #A97F53",
"R  c #806872",
"E  c #87797A",
"W  c #846B6C",
"Q  c #D65C55",
"!  c #CB514D",
"~  c #E35F58",
"^  c #D76959",
"/  c #DE735E",
"(  c #D66047",
")  c #EE635B",
"_  c #FA665E",
"`  c #EA744A",
"'  c #DF6D65",
"]  c #B0B00C",
"[  c #FEAC35",
"{  c #F8B62B",
"}  c #D6C606",
"|  c #FFFD01",
" . c #FFF407",
".. c #96865B",
"X. c #AC895D",
"o. c #AA924B",
"O. c #838371",
"+. c #AA8A63",
"@. c #B79A77",
"#. c #B59676",
"$. c #A98771",
"%. c #EC8156",
"&. c #FF8A7F",
"*. c #1A2982",
"=. c #1F3585",
"-. c #213B86",
";. c #2B558C",
":. c #305E90",
">. c #244388",
",. c #356794",
"<. c #236DB7",
"1. c #44748F",
"2. c #6E7CB0",
"3. c #6577AB",
"4. c #726C8A",
"5. c #2073C5",
"6. c #3C8097",
"7. c #42889B",
"8. c #5082A3",
"9. c #4A94A2",
"0. c #7685B4",
"q. c #5AABAE",
"w. c #56A5AC",
"e. c #5CAEB0",
"r. c #5FB3B3",
"t. c #67B2A7",
"y. c #7CBDA3",
"u. c #74C3B2",
"i. c #7ADAC9",
"p. c #77D5C5",
"a. c #9C8F92",
"s. c #9C989A",
"d. c #8B8A8D",
"f. c #AC9693",
"g. c #B8A58E",
"h. c #ABAAAA",
"j. c #BCBBBA",
"k. c #C09D8E",
"l. c #C29E9D",
"z. c #D89F92",
"x. c #FD8B81",
"c. c #FF968B",
"v. c #C4AB8E",
"b. c #C6A794",
"n. c #D6AA9B",
"m. c #CAB49A",
"M. c #F0A499",
"N. c #D0BDA6",
"B. c #D8B2A4",
"V. c #C0B1B0",
"C. c #FFBFAF",
"Z. c #F4B0A7",
"A. c #E2BCBF",
"S. c #F0B8AE",
"D. c #D4C3AE",
"F. c #D7C6B3",
"G. c #DCCDBB",
"H. c #EFD2A4",
"J. c #FACEBD",
"K. c #FEEDBD",
"L. c #A9AED0",
"P. c #B4B9D6",
"I. c #A9E7DC",
"U. c gray76",
"Y. c #DCD5C7",
"T. c #C0C4DD",
"R. c #D9D9D9",
"E. c #D3D3D3",
"W. c #E1C3C1",
"Q. c #FFC6C3",
"!. c #E3D8CA",
"~. c #FFD2C2",
"^. c #FFD4CB",
"/. c #FFDBCE",
"(. c #F2D2D0",
"). c #EEE7DE",
"_. c #CCCFE3",
"`. c #D5D8E9",
"'. c #CFF2EB",
"]. c #E4E4E4",
"[. c #EFE9E1",
"{. c gray92",
"}. c #E1E3EF",
"|. c #F1ECE5",
" X c #FFEDEC",
".X c #F6F2ED",
"XX c #FFFFFF",
"oX c #F3F5F5",
"OX c #E8F9F6",
/* pixels */
"XXXXXXXXXXXXXXXXXXXXXXXXXXXXXXXXXXXXXXXXXXXXXXXXXXXXXXXXXXXXXXXXXXXXXXXXXXXXXXXX",
"XXXXXXXXXXXXXXXXXXXXXXXXXXXXXXXXXXXXXXXXXXXXXXXXXXXXXXXXXXXXXXXXXXXXXXXXXXXXXXXX",
"XXXXXXXXXXXXXXXXXXXXXXXXXXXXXXXXXXXXXXXXXXXXXXXXXXXXXXXXXXXXXXXXXXXXXXXXXXXXXXXX",
"XXXXXXXXXXXXXXXXXXXXXXXXXXXXXXXXXXXXXXXXXXXXXXXXXXXXXXXXXXXXXXXXXXXXXXXXXXXXXXXX",
"XXXXXXXXXXXXXXXXXXXXXXXXXXXXXXXXXXXXXXXXXXXXXXXXXXXXXXXXXXXXXXXXXXXXXXXXXXXXXXXX",
"XXXXXXXXXXXXXXXXXXXXXXXXXXXXXXXXXXXXXXXXXXXXXXXXXXXXXXXXXXXXXXXXXXXXXXXXXXXXXXXX",
"XXXXXXXXXXXXXXXXXXXXXXXXXXXXXXXX[.T j j j oXXXXXXXXXXXXXXXXXXXXXXXXXXXXXXXXXXXXX",
"XXXXXXXXXXXXXXXXXXXXXXXXXXXXR.z W ! o.Z F l z ].XXXXXXXXXXXXXXXXXXXXXXXXXXXXXXXX",
"XXXXXXXXXXXXXXXXXXXXXXXXXXE.k r F / K.H.` F r l ].XXXXXXXXXXXXXXXXXXXXXXXXXXXXXX",
"XXXXXXXXXXXXXXXXXXXXXXXXR.R D J x 9 d.d.8 D J D E R.XXXXXXXXXXXXXXXXXXXXXXXXXXXX",
"XXXXXXXXXXXXXXXXXXXXXXXXh.; G r X X X X X X D G + U.XXXXXXXXXXXXXXXXXXXXXXXXXXXX",
"XXXXXXXXXXXXXXXXXXXXXXXXh.= ; X X X X X X X X ; + U.XXXXXXXXXXXXXXXXXXXXXXXXXXXX",
"XXXXXXXXXXXXXXXXXXXXXXXXh.  X @ z k , 7 j z O   X U.XXXXXXXXXXXXXXXXXXXXXXXXXXXX",
"XXXXXXXXXXXXXXXXXXXXXX Xf.o u E OXV.&.&.j.XXk 7 o l. XXXXXXXXXXXXXXXXXXXXXXXXXXX",
"XXXXXXXXXXXXXXXXXXXX XM.B , c./.R.$ J.J.X .X^.c.: K Z. XXXXXXXXXXXXXXXXXXXXXXXXX",
"XXXXXXXXXXXXXXXXXXXXC.! & u B.^.G.f J.J.u (.~.B.5 1 ( Q.XXXXXXXXXXXXXXXXXXXXXXXX",
"XXXXXXXXXXXXXXXXXXXXJ.^ 6 O f z.' C.C.C.J.Q n.a O 6 / ^.{.R.R.R.R.R.).XXXXXXXXXX",
"XXXXXXXXXXXXXXXXXXXXXXJ.L f k.X = ~ ~ ~ ) O X n.u L A.].O.. . % = = d ].XXXXXXXX",
"XXXXXXXXXXXXXXXXXXXXXXXXD.X.k.O X X   X X X O n.U <.t . ] |  .{ ) ) L i oXXXXXXX",
"XXXXXXXXXXXXXXXXXXXXXXXXoXD.Y n.X X X X X X S.Z 5.q ] | | [ _ K X   : ! y XXXXXX",
"XXXXXXXXXXXXXXXXXXXXXXm.v v v m _ _ _ _ _ _ m v v v } | [ K X * c 3 1 : Q y XXXX",
"XXXXXXXXXXXXXXXXXXXXm.@..XN.v v b b b b b b v v G..XX.S N * 3 3 c v 1 - Q $ XXXX",
"XXXXXXXXXXXXXXXXXXXXv.#.XXF.Y D.8 h G G 1.4 Y.C !.XX+.* o X         X o # $ XXXX",
"XXXXXXXXXXXXXXXXXXXXv.@.XXD.X.!.M r.+ @ u.4 |.C !.XXX.g.R.R.R.E.R.R.R.R.E.].XXXX",
"XXXXXXXXXXXXXXXXXXXXg.@.G.#.D...u.p.t.t.i.h...G.+.!.+.N.XXXXXXXXXXXXXXXXXXXXXXXX",
"XXXXXXXXXXXXXXXXXXXX[.v.C M #.Y.'.i.i.i.i.'.G.+.M P m.|.XXXXXXXXXXXXXXXXXXXXXXXX",
"XXXXXXXXXXXXXXXXXXXXXX).a.w 4.XXOXp.i.i.i.OXXXg w f.|.XXXXXXXXXXXXXXXXXXXXXXXXXX",
"XXXXXXXXXXXXXXXXXXXXXXXXL.-.8.I.I.i.i.i.i.I.I.1.-.T.XXXXXXXXXXXXXXXXXXXXXXXXXXXX",
"XXXXXXXXXXXXXXXXXXXXXXXXL.>.9.i.p.i.i.i.i.i.i.7.-.T.XXXXXXXXXXXXXXXXXXXXXXXXXXXX",
"XXXXXXXXXXXXXXXXXXXXXXXX`.0.,.r.i.u.q.r.i.i.e.:.0.}.XXXXXXXXXXXXXXXXXXXXXXXXXXXX",
"XXXXXXXXXXXXXXXXXXXXXXXXXXP.>.6.q.w.;.;.q.q.,.-._.XXXXXXXXXXXXXXXXXXXXXXXXXXXXXX",
"XXXXXXXXXXXXXXXXXXXXXXXXXX`.8.;.;.;.*.*.;.:.:.2.}.XXXXXXXXXXXXXXXXXXXXXXXXXXXXXX",
"XXXXXXXXXXXXXXXXXXXXXXXXXX].d.e e w 0 0 w e e s.{.XXXXXXXXXXXXXXXXXXXXXXXXXXXXXX",
"XXXXXXXXXXXXXXXXXXXXXXXX].s.s c 3 3 X X c c v a h.{.XXXXXXXXXXXXXXXXXXXXXXXXXXXX",
"XXXXXXXXXXXXXXXXXXXXXXXXh.u $.1 1 2 p p 1 1 1 #.y V.XXXXXXXXXXXXXXXXXXXXXXXXXXXX",
"XXXXXXXXXXXXXXXXXXXXXXXXU.i i i i j XXXXi i i i i E.XXXXXXXXXXXXXXXXXXXXXXXXXXXX",
"XXXXXXXXXXXXXXXXXXXXXXXXXXXXXXXXXXXXXXXXXXXXXXXXXXXXXXXXXXXXXXXXXXXXXXXXXXXXXXXX",
"XXXXXXXXXXXXXXXXXXXXXXXXXXXXXXXXXXXXXXXXXXXXXXXXXXXXXXXXXXXXXXXXXXXXXXXXXXXXXXXX",
"XXXXXXXXXXXXXXXXXXXXXXXXXXXXXXXXXXXXXXXXXXXXXXXXXXXXXXXXXXXXXXXXXXXXXXXXXXXXXXXX",
"XXXXXXXXXXXXXXXXXXXXXXXXXXXXXXXXXXXXXXXXXXXXXXXXXXXXXXXXXXXXXXXXXXXXXXXXXXXXXXXX"
};
