/* XPM */
static char *a591869beccf4f43e8a12e296ba339c2uAbC7pqjn4seIq9Y[] = {
/* columns rows colors chars-per-pixel */
"40 40 193 2 ",
"   c #2D261F",
".  c #372C1E",
"X  c #33331E",
"o  c #1E2B38",
"O  c #212121",
"+  c gray22",
"@  c #43311C",
"#  c #4E361A",
"$  c #50371A",
"%  c #553A19",
"&  c #5E3E18",
"*  c #613F17",
"=  c #44272C",
"-  c #43332D",
";  c #51302F",
":  c #492131",
">  c #562136",
",  c #582137",
"<  c #593331",
"1  c #693C2B",
"2  c #663735",
"3  c #6C283A",
"4  c #644117",
"5  c #6F4615",
"6  c #764A17",
"7  c #7C7C13",
"8  c #58423B",
"9  c #49413E",
"0  c #67472E",
"q  c #744624",
"w  c #654C35",
"e  c #735A3D",
"r  c #1B2D5C",
"t  c #393C49",
"y  c #283C4E",
"u  c #3F2560",
"i  c #3C3968",
"p  c #453645",
"a  c #573F40",
"s  c #503051",
"d  c #702140",
"f  c #7D3E46",
"g  c #493D7C",
"h  c #31404D",
"j  c #16426F",
"k  c #4E4947",
"l  c #514F5E",
"z  c #59544D",
"x  c #614C4B",
"c  c #62524A",
"v  c #655C56",
"b  c #67625D",
"n  c #734C60",
"m  c #626262",
"M  c #6C727F",
"N  c #79706D",
"B  c #8A323A",
"V  c #824F12",
"C  c #847E13",
"Z  c #947C1F",
"A  c #864338",
"S  c #A7533D",
"D  c #936A2D",
"F  c #8B2747",
"G  c #9A2B4A",
"H  c #BE2A58",
"J  c #B0334B",
"K  c #9A2867",
"L  c #B62E6A",
"P  c #D12B5F",
"I  c #D72D60",
"U  c #EE3365",
"Y  c #FF3868",
"T  c #93434C",
"R  c #A34B46",
"E  c #B14F4A",
"W  c #916F4F",
"Q  c #AC6D40",
"!  c #AA784A",
"~  c #B27348",
"^  c #834678",
"/  c #B14169",
"(  c #87756C",
")  c #9B7C63",
"_  c #837E7B",
"`  c #8B706E",
"'  c #B76867",
"]  c #B77964",
"[  c #A87275",
"{  c #D15F44",
"}  c #C75650",
"|  c #C95751",
" . c #D7455C",
".. c #E0624D",
"X. c #EA6453",
"o. c #F44061",
"O. c #F64471",
"+. c #C9736E",
"@. c #FF6860",
"#. c #FF7970",
"$. c #9D9D0E",
"%. c #8B8B11",
"&. c #828213",
"*. c #A9865C",
"=. c #9C8476",
"-. c #95957E",
";. c #8C8378",
":. c #A7886D",
">. c #A3887E",
",. c #C39D45",
"<. c #C0816C",
"1. c #C2926B",
"2. c #FF9179",
"3. c #F58E70",
"4. c #1A2882",
"5. c #1E3385",
"6. c #234087",
"7. c #274C8A",
"8. c #2D598A",
"9. c #2F5690",
"0. c #387A93",
"q. c #635885",
"w. c #57698A",
"e. c #796E89",
"r. c #7179B1",
"t. c #0A5DCF",
"y. c #0869CB",
"u. c #8E7D81",
"i. c #FF7495",
"p. c #558E84",
"a. c #438A9C",
"s. c #468086",
"d. c #4E99A5",
"f. c #5595AD",
"g. c #789CAF",
"h. c #65BBB7",
"j. c #738E8F",
"k. c #7ADAC9",
"l. c #97858A",
"z. c #989589",
"x. c #8F8E9A",
"c. c #969696",
"v. c #898989",
"b. c #AE9784",
"n. c #BF9E92",
"m. c #AF938F",
"M. c #BFA586",
"N. c #85B6AD",
"B. c #AAAAAA",
"V. c gray64",
"C. c #BDBDBD",
"Z. c #B4B4B4",
"A. c #9589AB",
"S. c #D49388",
"D. c #FF8E83",
"F. c #E19E98",
"G. c #C3A98C",
"H. c #CAAB8D",
"J. c #FFA89B",
"K. c #F0A59A",
"L. c #D5AAA1",
"P. c #C8B8B4",
"I. c #FFB5B2",
"U. c #FFB9AA",
"Y. c #93C3BA",
"T. c #D0C49F",
"R. c #D4C2AD",
"E. c #D2C5B6",
"W. c #B8BBCC",
"Q. c #9FCCC4",
"!. c #8EE0D1",
"~. c #94E1D4",
"^. c #B1E9DF",
"/. c #AAE7DD",
"(. c #C8C8C8",
"). c #C3C7DE",
"_. c #D2D2D2",
"`. c #DBDBDB",
"'. c #FFCAC5",
"]. c #FFDCCF",
"[. c #E5DACE",
"{. c #EAE2D8",
"}. c #FFE1D5",
"|. c #C9CCE1",
" X c #FFD9E2",
".X c #C5EFE8",
"XX c #E3E3E3",
"oX c #EFE9E1",
"OX c #ECECEC",
"+X c #F9EDEA",
"@X c #F1F1F1",
"#X c #FFFFFF",
"$X c #E5E6F1",
/* pixels */
"#X#X#X#X#X#X#X#X#X#X#X#X#X#X#X#X#X#X#X#X#X#X#X#X#X#X#X#X#X#X#X#X#X#X#X#X#X#X#X#X",
"#X#X#X#X#X#X#X#X#X#X#X#X#X#X#X#X#X#X#X#X#X#X#X#X#X#X#X#X#X#X#X#X#X#X#X#X#X#X#X#X",
"#X#X#X#X#X#X#X#X#X#X#X#X#X#X#X#X#X#X#X#X#X#X#X#X#X#X#X#X#X#X#X#X#X#X#X#X#X#X#X#X",
"#X#X#X#X#X#X#X#X#X#X#X#X#X#X#X#X#X#X#X#X#X#X#X#X#X#X#X#X#X#X#X#X#X#X#X#X#X#X#X#X",
"#X#X#X#X#X#X#X#X#X#X#X#X#X#X#X#X#X#X#X#X#X#X#X#X#X#X#X#X#X#X#X#X#X#X#X#X#X#X#X#X",
"#X#X#X#X#X#X#X#X#X#X#X#X#X#X#X#X#X#X#X#XOXXXXX{.{.@X#X#X#X#X#X#X#X#X#X#X#X#X#X#X",
"#X#X#X#X#X#X#X#X#X#X#X#X#X#X#X#X#X#XOX`.u.= - - = V.@X#X#X#X#X#X#X#X#X#X#X#X#X#X",
"#X#X#X#X#X#X#X#X#X#X#X#X#X#X#X#X#XOXl.= G o.3.2.U 3 Z.#X#X#X#X#X#X#X#X#X#X#X#X#X",
"#X#X#X#X#X#X#X#X#X#X#X#X#X#X#X#XOXu.G U H S ,.T.u.> c.+X#X#X#X#X#X#X#X#X#X#X#X#X",
"#X#X#X#X#X#X#X#X#X#X#X#X#X#X#XOXl.F P F : O O O O O O x.@X#X#X#X#X#X#X#X#X#X#X#X",
"#X#X#X#X#X#X#X#X#X#X#X#X#X#XOXc.F P , O O O O O O O O O C.#X#X#X#X#X#X#X#X#X#X#X",
"#X#X#X#X#X#X#X#X#X#X#X#X#X#XB., G d O + x v x x m + O k _.#X#X#X#X#X#X#X#X#X#X#X",
"#X#X#X#X#X#X#X#X#X#X#X#X#X#XP.F / , = E I.`.F.F.XX( z _.#X#X#X#X#X#X#X#X#X#X#X#X",
"#X#X#X#X#X#X#X#X#X#X#X#X#X+XF.3.>.O B #.'.v.=.N B.H.H.+X#X#X#X#X#X#X#X#X#X#X#X#X",
"#X#X#X#X#X#X#X#X#X#X#X#X#X'.{ ~ [ O < S.}.m.+.:.P.].! E.#X#X#X#X#X#X#X#X#X#X#X#X",
"#X#X#X#X#X#X#X#X#X#XOXB.B.m.S { } ; 9 n.L.] X.D.J.J.Q E.#X#X#X#X#X#X#X#X#X#X#X#X",
"#X#X#X#X#X#X#X#XOXV.-.7 7 7 D R } } ] S.c . A S R R 1 ;.XX#X#X#X#X#X#X#X#X#X#X#X",
"#X#X#X#X#X#X#XOX-.&.%.$.$.$.Z < ; | @.+.( 9 O O O O O m `.#X#X#X#X#X#X#X#X#X#X#X",
"#X#X#X#X#X#XOX-.%.$.7   @ X 1 2 O q { 2.U.n.( ( w # # :.oX#X#X#X#X#X#X#X#X#X#X#X",
"#X#X#X#X#X@X-.%.&.# $ $ 0 =.b.` F B J I ' =.:.1.D *.M.M.G.oX#X#X#X#X#X#X#X#X#X#X",
"#X#X#X#X#XXXX C & V V 5 v }.#X Xi.U P K s s R F T +.{.R.G.oX#X#X#X#X#X#X#X#X#X#X",
"#X#X#X#X@X;.% & V V V 5 0 =.R.[.+.Y Y L g q./ K ^ T :.G.{.#X#X#X#X#X#X#X#X#X#X#X",
"#X#X#X#XoXO V V V V V V 6 % e W B P P G s w.g.n p M c P.#X#X#X#X#X#X#X#X#X#X#X#X",
"#X#X#X#XXX  V V V V V V 6 & h 7.g M c.j.p.N..XN.p.Y.w.W.#X#X#X#X#X#X#X#X#X#X#X#X",
"#X#X#X@XN 4 V V V V V V V & j t.7.a.h.k.k..X#X^.!.g.A.>.{.#X#X#X#X#X#X#X#X#X#X#X",
"#X#X#XOX  6 V V V V V V 5 t y.y.5.8.a.h.k.~./.!.f.l W 0 b `.#X#X#X#X#X#X#X#X#X#X",
"#X#X#XOX  V 6 @ @ @ . # * j y.r r 5.8.a.d.h.k.f.l q % O O (.#X#X#X#X#X#X#X#X#X#X",
"#X#X#XOX  . 8 C.C.C.C.z.. o h 4 p 4.7.0.0.a.d.9.8 % X O O E.#X#X#X#X#X#X#X#X#X#X",
"#X#X#X@XC.C.(.#X#X#X#XOXE.v.@ V a 4.5.6.6.6.6.5.8 @ O O O (.#X#X#X#X#X#X#X#X#X#X",
"#X#X#X#X#X#X#X#X#X#X#X#X#XZ.@ V q 0 s 4.r.).).).) @ O O x.OX#X#X#X#X#X#X#X#X#X#X",
"#X#X#X#X#X#X#X#X#X#X#X#X#XZ.@ ~ :.. M |.$X#X#X#X{.b O c.OX#X#X#X#X#X#X#X#X#X#X#X",
"#X#X#X#X#X#X#X#X#X#X#X#X#XOXc.X _ _.XX#X#X#X#X#X#XXX_.@X#X#X#X#X#X#X#X#X#X#X#X#X",
"#X#X#X#X#X#X#X#X#X#X#X#X#X#X@X_.XX#X#X#X#X#X#X#X#X#X#X#X#X#X#X#X#X#X#X#X#X#X#X#X",
"#X#X#X#X#X#X#X#X#X#X#X#X#X#X#X#X#X#X#X#X#X#X#X#X#X#X#X#X#X#X#X#X#X#X#X#X#X#X#X#X",
"#X#X#X#X#X#X#X#X#X#X#X#X#X#X#X#X#X#X#X#X#X#X#X#X#X#X#X#X#X#X#X#X#X#X#X#X#X#X#X#X",
"#X#X#X#X#X#X#X#X#X#X#X#X#X#X#X#X#X#X#X#X#X#X#X#X#X#X#X#X#X#X#X#X#X#X#X#X#X#X#X#X",
"#X#X#X#X#X#X#X#X#X#X#X#X#X#X#X#X#X#X#X#X#X#X#X#X#X#X#X#X#X#X#X#X#X#X#X#X#X#X#X#X",
"#X#X#X#X#X#X#X#X#X#X#X#X#X#X#X#X#X#X#X#X#X#X#X#X#X#X#X#X#X#X#X#X#X#X#X#X#X#X#X#X",
"#X#X#X#X#X#X#X#X#X#X#X#X#X#X#X#X#X#X#X#X#X#X#X#X#X#X#X#X#X#X#X#X#X#X#X#X#X#X#X#X",
"#X#X#X#X#X#X#X#X#X#X#X#X#X#X#X#X#X#X#X#X#X#X#X#X#X#X#X#X#X#X#X#X#X#X#X#X#X#X#X#X"
};
