/* XPM */
static char *_9b1d2327bb5441aa6825568626d24fdPtQij5qhhCbQr1T2[] = {
/* columns rows colors chars-per-pixel */
"40 40 189 2 ",
"   c #2D291F",
".  c #3C2E1D",
"X  c #30281F",
"o  c #3A3A1E",
"O  c #222221",
"+  c #2A2125",
"@  c #322E2D",
"#  c #3D3634",
"$  c #3E3E3E",
"%  c #3C2C2E",
"&  c #42311C",
"*  c #4B351B",
"=  c #5C3D18",
"-  c #543C19",
";  c #462A2D",
":  c #512134",
">  c #463F38",
",  c #5F3533",
"<  c #493925",
"1  c #69223D",
"2  c #6E3B38",
"3  c #594B1C",
"4  c #674216",
"5  c #6D4515",
"6  c #68461F",
"7  c #754914",
"8  c #7B4C14",
"9  c #714715",
"0  c #7D7D13",
"q  c #554534",
"w  c #4E4335",
"e  c #65433A",
"r  c #70542A",
"t  c #787820",
"y  c #1C2A53",
"u  c #1C2D79",
"i  c #313169",
"p  c #282A77",
"a  c #4A3A4E",
"s  c #712D47",
"d  c #54306F",
"f  c #2B4044",
"g  c #16416D",
"h  c #414141",
"j  c #4B4B4B",
"k  c #594E41",
"l  c #5E5E5E",
"z  c #535353",
"x  c #40575B",
"c  c #6E5648",
"v  c #515A7F",
"b  c #6F5B7A",
"n  c DimGray",
"m  c #766E6D",
"M  c #7C7C7C",
"N  c #757473",
"B  c #824F12",
"V  c #834C1C",
"C  c #87551A",
"Z  c #9E5524",
"A  c #A6552C",
"S  c #86633D",
"D  c #94214E",
"F  c #8E324C",
"G  c #A72D4D",
"H  c #A4394A",
"J  c #AE2555",
"K  c #B22659",
"L  c #BF265C",
"P  c #912461",
"I  c #873369",
"U  c #D22C5F",
"Y  c #D2305D",
"T  c #CC2D5C",
"R  c #E5365F",
"E  c #CC3861",
"W  c #FF3868",
"Q  c #F43865",
"!  c #EE3663",
"~  c #9D4258",
"^  c #BE574B",
"/  c #8A7753",
"(  c #A67A4B",
")  c #827776",
"_  c #8B6563",
"`  c #B7546E",
"'  c #C05842",
"]  c #C95751",
"[  c #D55053",
"{  c #E35F58",
"}  c #EC7F4B",
"|  c #EC6356",
" . c #FB675E",
".. c #FF4E79",
"X. c #EE577B",
"o. c #D87E79",
"O. c #FF6A62",
"+. c #FF776E",
"@. c #E47B69",
"#. c #9E9E0E",
"$. c #868614",
"%. c #959510",
"&. c #EEEE02",
"*. c #F9F901",
"=. c #AB8556",
"-. c #9F8362",
";. c #848471",
":. c #B3916B",
">. c #B79A77",
",. c #A88878",
"<. c #D69A7C",
"1. c #FF887E",
"2. c #FFD277",
"3. c #1B2982",
"4. c #153798",
"5. c #1C5084",
"6. c #0F559C",
"7. c #264789",
"8. c #2A538B",
"9. c #235F9B",
"0. c #397B94",
"q. c #367592",
"w. c #366C90",
"e. c #465F82",
"r. c #47688B",
"t. c #726F8C",
"y. c #7579A8",
"u. c #747CB3",
"i. c #0867C8",
"p. c #0376EC",
"a. c #738E8D",
"s. c #62A79B",
"d. c #4D94A4",
"f. c #509DA7",
"g. c #7C84B7",
"h. c #56A6AC",
"j. c #6BADA1",
"k. c #6EC2BD",
"l. c #74BCC1",
"z. c #70C8C2",
"x. c #7BDAC9",
"c. c #8A8A8A",
"v. c #838383",
"b. c #959595",
"n. c gray60",
"m. c #95958C",
"M. c #AE9084",
"N. c #B4968E",
"B. c #A0A09D",
"V. c #85ADAC",
"C. c gray63",
"Z. c gray68",
"A. c #B6B6B6",
"S. c #BCBCBC",
"D. c #F9928B",
"F. c #DEB096",
"G. c #CFAC93",
"H. c #E5A795",
"J. c #DBB5A7",
"K. c #C0B1B0",
"L. c #CEBBA3",
"P. c #FDBEAE",
"I. c #F48EA9",
"U. c #D6C5B1",
"Y. c #EFC4B4",
"T. c #FCCDBD",
"R. c #FAC0B0",
"E. c #FED0BF",
"W. c #9DB2C4",
"Q. c #84DDCD",
"!. c #A8E7DC",
"~. c #C3C3C3",
"^. c #CDCDCD",
"/. c #CBC6C1",
"(. c #DADADA",
"). c gray84",
"_. c #FFD2C1",
"`. c #E7DBCF",
"'. c #EBE4DA",
"]. c #FAE3DF",
"[. c #D0EEE9",
"{. c #ECECEC",
"}. c #E4E4E4",
"|. c #F5EBE7",
" X c #F9F2ED",
".X c #FFEBF0",
"XX c #FFFFFF",
"oX c #F5F3F1",
"OX c #E8F9F6",
/* pixels */
"XXXXXXXXXXXXXXXXXXXXXXXXXXXXXXXXXXXXXXXXXXXXXXXXXXXXXXXXXXXXXXXXXXXXXXXXXXXXXXXX",
"XXXXXXXXXXXXXXXXXXXXXXXXXXXXXXXXXXXXXXXXXXXXXXXXXXXXXXXXXXXXXXXXXXXXXXXXXXXXXXXX",
"XXXXXXXXXXXXXXXXXXXXXXXXXXXXXXXXXXXXXXXXXXXXXXXXXXXXXXXXXXXXXXXXXXXXXXXXXXXXXXXX",
"XXXXXXXXXXXXXXXXXXXXXXXXXXXXXXXXXXXXXXXXXXXXXXXXXXXXXXXXXXXXXXXXXXXXXXXXXXXXXXXX",
"XXXXXXXXXXXXXXXXXXXXXXXXXXXXXXXXXXXXXXXXXXXXXXXXXXXXXXXXXXXXXXXXXXXXXXXXXXXXXXXX",
"XXXXXXXXXXXXXXXXXXXXXXXXXXXXXXXXXXXXXXXXXXXXXXXXXXXXXXXXXXXXXXXXXXXXXXXXXXXXXXXX",
"XXXXXXXXXXXXXXXXXXXXXXXXXXXXb.n n n n XXXXXXXXXXXXXXXXXXXXXXXXXXXXXXXXXXXXXXXXXX",
"XXXXXXXXXXXXXXXXXXXXXXXXXXC.H G =.H G N N XXXXXXXXXXXXXXXXXXXXXXXXXXXXXXXXXXXXXX",
"XXXXXXXXXXXXXXXXXXXXXXXXXXn G I.2.1.T G G c.XXXXXXXXXXXXXXXXXXXXXXXXXXXXXXXXXXXX",
"XXXXXXXXXXXXXXXXXXXXXXXXS.f : ) S r 1 U Y F n.OXXXXXXXXXXXXXXXXXXXXXXXXXXXXXXXXX",
"XXXXXXXXXXXXXXXXXXXXXX~.j O O O O O O 1 1 U F Z.XXXXXXXXXXXXXXXXXXXXXXXXXXXXXXXX",
"XXXXXXXXXXXXXXXXXXXXXXM O O O O O O O O + s T s A.XXXXXXXXXXXXXXXXXXXXXXXXXXXXXX",
"XXXXXXXXXXXXXXXXXXXXXXZ.h O l N r m N e O + J D z XXXXXXXXXXXXXXXXXXXXXXXXXXXXXX",
"XXXXXXXXXXXXXXXXXXXXXXXXC.w /.U.D.Z.XX ., O D ` _ XXXXXXXXXXXXXXXXXXXXXXXXXXXXXX",
"XXXXXXXXXXXXXXXXXXXXXXXX'.:.`.z J.# |.1. .O > P.@.].XXXXXXXXXXXXXXXXXXXXXXXXXXXX",
"XXXXXXXXXXXXXXXXXXXXXXXX:.G.].m H.e |.E.]   % H.Z D.XXXXXXXXXXXXXXXXXXXXXXXXXXXX",
"XXXXXXXXXXXXXXXXXXXXXXXX:.<.P.R.+.| J.T.w O , | A o.(.(.{.XXXXXXXXXXXXXXXXXXXXXX",
"XXXXXXXXXXXXXXXXXXXXXX{.-.^ { | { 8 + J.R.; O.| ^ o o o ;.}.oXXXXXXXXXXXXXXXXXXX",
"XXXXXXXXXXXXXXXXXXXXXXc.O O O O O O @ @ O.O.] O 3 &.&.&.#.o m.oXXXXXXXXXXXXXXXXX",
"XXXXXXXXXXXXXXXXXXXXXXXXN O O + + + Y.T.O.| + ; ] O O O 0 *.$.C.XXXXXXXXXXXXXXXX",
"XXXXXXXXXXXXXXXXXXXXXX>.V 8 B F.T.T.E.O. .B O O . 4 & = O O %.$.Z.XXXXXXXXXXXXXX",
"XXXXXXXXXXXXXXXXXXXXN.G.oXoX( C C # @ K K J ! X.{.].M.& 8 8 - #.t S.XXXXXXXXXXXX",
"XXXXXXXXXXXXXXXXXXXXXX>.L.>.[ d E Y p p Q Q ...XXX XN.* B B 8 3 + A.XXXXXXXXXXXX",
"XXXXXXXXXXXXXXXXXXXXXX|.:.H t.I K t.w.P W W Q =.`.S q 7 B B 8 7 5 w ^.XXXXXXXXXX",
"XXXXXXXXXXXXXXXXXXXXXXXX) M x % V.j.f ; L L G < S * 7 B B B B B B & U.XXXXXXXXXX",
"XXXXXXXXXXXXXXXXXXXXXXXXy.W.V.h.[.[.s.s.V.V.e.u 9.. B B B B B B B & S.XXXXXXXXXX",
"XXXXXXXXXXXXXXXXXXXXXXL.M.b.l.x.OXXXQ.x.x.d.w.4.i.. B B B B B B B 7 l (.XXXXXXXX",
"XXXXXXXXXXXXXXXXXXXXA.k c r r.l.!.!.Q.x.f.w.7.4.p.5.- B B B B B B B & ^.XXXXXXXX",
"XXXXXXXXXXXXXXXXXXXXc.O . 9 e r.z.x.h.h.q.7.u y 6.i.. 5 * * * * 5 B . ^.XXXXXXXX",
"XXXXXXXXXXXXXXXXXXXXc.O O & 7 i d.f.0.q.q.3.p - w g   c n.b.b.n.c *   ^.XXXXXXXX",
"XXXXXXXXXXXXXXXXXXXXv.O O O 5 i 8.8.8.8.8.3.p B 5 $ c.A.XXXXXXXXA.c.c.}.XXXXXXXX",
"XXXXXXXXXXXXXXXXXXXXS.j O O 6 t.g.g.g.3.u a a 8 5 l XXXXXXXXXXXXXXXXXXXXXXXXXXXX",
"XXXXXXXXXXXXXXXXXXXXXXZ.h O / }.XXXXXXu.y.= 6 ( 5 l XXXXXXXXXXXXXXXXXXXXXXXXXXXX",
"XXXXXXXXXXXXXXXXXXXXXXXXC.n ).XXXXXXXXXXXXn n ,.6 b.XXXXXXXXXXXXXXXXXXXXXXXXXXXX",
"XXXXXXXXXXXXXXXXXXXXXXXXXXXXXXXXXXXXXXXXXXXX{.l v.XXXXXXXXXXXXXXXXXXXXXXXXXXXXXX",
"XXXXXXXXXXXXXXXXXXXXXXXXXXXXXXXXXXXXXXXXXXXXXXXXXXXXXXXXXXXXXXXXXXXXXXXXXXXXXXXX",
"XXXXXXXXXXXXXXXXXXXXXXXXXXXXXXXXXXXXXXXXXXXXXXXXXXXXXXXXXXXXXXXXXXXXXXXXXXXXXXXX",
"XXXXXXXXXXXXXXXXXXXXXXXXXXXXXXXXXXXXXXXXXXXXXXXXXXXXXXXXXXXXXXXXXXXXXXXXXXXXXXXX",
"XXXXXXXXXXXXXXXXXXXXXXXXXXXXXXXXXXXXXXXXXXXXXXXXXXXXXXXXXXXXXXXXXXXXXXXXXXXXXXXX",
"XXXXXXXXXXXXXXXXXXXXXXXXXXXXXXXXXXXXXXXXXXXXXXXXXXXXXXXXXXXXXXXXXXXXXXXXXXXXXXXX"
};
