/* XPM */
static char *_b0ee85f4bda406597d1d316dd334b0fHlgEpKCv2U5PwWu7[] = {
/* columns rows colors chars-per-pixel */
"40 40 179 2 ",
"   c #2F2B1F",
".  c #32291F",
"X  c #392C1D",
"o  c #3C3C1D",
"O  c #222121",
"+  c #2B2425",
"@  c #2C2A29",
"#  c #272728",
"$  c #362826",
"%  c #342328",
"&  c #272633",
"*  c #3B3B3B",
"=  c #3B3729",
"-  c #46301F",
";  c #56381D",
":  c #48252E",
">  c #463D2C",
",  c #5B3F2C",
"<  c #502432",
"1  c #5C2238",
"2  c #55323B",
"3  c #622737",
"4  c #64223B",
"5  c #6D253C",
"6  c #663B39",
"7  c #713B38",
"8  c #643B26",
"9  c #5E5E18",
"0  c #4A4A1B",
"q  c #784A15",
"w  c #696916",
"e  c #58492C",
"r  c #6C472A",
"t  c #724029",
"y  c #604438",
"u  c #7E7E37",
"i  c #23255A",
"p  c #20284A",
"a  c #1A287C",
"s  c #782143",
"d  c #326070",
"f  c #564B45",
"g  c #565451",
"h  c #665C5B",
"j  c #5D7D71",
"k  c #666565",
"l  c #717171",
"z  c #7C7C7C",
"x  c #7B7164",
"c  c #786E50",
"v  c #953A32",
"b  c #824F12",
"n  c #8B4D18",
"m  c #92463D",
"M  c #BF5B38",
"N  c #B65739",
"B  c #9E6331",
"V  c #AA7330",
"C  c #C75D3D",
"Z  c #88214A",
"A  c #822445",
"S  c #98284B",
"D  c #9B2151",
"F  c #A02E4A",
"G  c #A43340",
"H  c #AE2158",
"J  c #B12259",
"K  c #CC2A5E",
"L  c #D22B5F",
"P  c #D92E60",
"I  c #E73263",
"U  c #FF3868",
"Y  c #FD3867",
"T  c #8D4440",
"R  c #874545",
"E  c #9E4944",
"W  c #974A46",
"Q  c #88534F",
"!  c #AA4D48",
"~  c #AB504B",
"^  c #9D7E5A",
"/  c #B16F44",
"(  c #9D4F6E",
")  c #BC5272",
"_  c #806C65",
"`  c #867369",
"'  c #96746C",
"]  c #D5445C",
"[  c #F64A5D",
"{  c #DD614B",
"}  c #C66348",
"|  c #EC625B",
" . c #F9675D",
".. c #F2406E",
"X. c #DC7960",
"o. c #FE6961",
"O. c #A9A90D",
"+. c #8D9027",
"@. c #C9C90A",
"#. c #CBCF1D",
"$. c #828255",
"%. c #B18053",
"&. c #A9914A",
"*. c #AF8F68",
"=. c #B1916B",
"-. c #AB8C75",
";. c #C6A64F",
":. c #C19070",
">. c #FEC166",
",. c #1E3384",
"<. c #1B2B83",
"1. c #213B86",
"2. c #203785",
"3. c #254588",
"4. c #2D578B",
"5. c #2F608B",
"6. c #31688F",
"7. c #387A93",
"8. c #377792",
"9. c #41719F",
"0. c #606F96",
"q. c #FF7D81",
"w. c #5D9F94",
"e. c #558C83",
"r. c #5EA095",
"t. c #7AAA8C",
"y. c #4993A1",
"u. c #4688A0",
"i. c #7ADAC9",
"p. c #77D4C4",
"a. c #919191",
"s. c #A79C9F",
"d. c #AA8E83",
"f. c #BFA585",
"g. c #A9A9A9",
"h. c #B6B6B6",
"j. c gray74",
"k. c #BCB6B7",
"l. c #B2A9AB",
"z. c #D89185",
"x. c #FF8D82",
"c. c #E99387",
"v. c #F9968B",
"b. c #FF9D91",
"n. c #C5A88B",
"m. c #C5AE92",
"M. c #CAB59B",
"N. c #C7B094",
"B. c #FFA698",
"V. c #FDA295",
"C. c #D8B2A4",
"Z. c #C5ABA8",
"A. c #F3ABA2",
"S. c #D2C8B5",
"D. c #FDCEBE",
"F. c #8B97C0",
"G. c #9BA4C8",
"H. c #A9AFD0",
"J. c #B5B9D6",
"K. c #C3C3C3",
"L. c gray81",
"P. c LightGray",
"I. c #DCDCDC",
"U. c #D9C8C5",
"Y. c #FFCECB",
"T. c #E4D9CB",
"R. c #FFDACD",
"E. c #E6D6D0",
"W. c #ECE4DB",
"Q. c #C6CAE0",
"!. c #E2E2E2",
"~. c #ECECEC",
"^. c #EFE9E2",
"/. c #FCEAE6",
"(. c #EAEBF4",
"). c #F3F3F3",
"_. c #FFF6F5",
"`. c #FFFFFF",
"'. c #F5F2ED",
/* pixels */
"`.`.`.`.`.`.`.`.`.`.`.`.`.`.`.`.`.`.`.`.`.`.`.`.`.`.`.`.`.`.`.`.`.`.`.`.`.`.`.`.",
"`.`.`.`.`.`.`.`.`.`.`.`.`.`.`.`.`.`.`.`.`.`.`.`.`.`.`.`.`.`.`.`.`.`.`.`.`.`.`.`.",
"`.`.`.`.`.`.`.`.`.`.`.`.`.`.`.`.`.`.`.`.`.`.`.`.`.`.`.`.`.`.`.`.`.`.`.`.`.`.`.`.",
"`.`.`.`.`.`.`.`.`.`.`.`.`.`.`.`.`.`.`.`.`.`.`.`.`.`.`.`.`.`.`.`.`.`.`.`.`.`.`.`.",
"`.`.`.`.`.`.`.`.`.`.`.`.`.`.`.`.`.`.`.`.`.`.`.`.`.`.`.`.`.`.`.`.`.`.`.`.`.`.`.`.",
"`.`.`.`.`.`.`.`.`.`.`.`.`.`.`.`.`.`.`.`.`.`.`.`.`.`.`.`.`.`.`.`.`.`.`.`.`.`.`.`.",
"`.`.`.`.`.`.`.`.`.`.`.`.`.`.`.`.`.`.`.`.`.I.I.I.I.I.).`.`.`.`.`.`.`.`.`.`.`.`.`.",
"`.`.`.`.`.`.`.`.`.`.`.`.`.`.`.`.`.`.`.P.P.2 : > : : s.~.`.`.`.`.`.`.`.`.`.`.`.`.",
"`.`.`.`.`.`.`.`.`.`.`.`.`.`.`.`.`._.K.< < I [ >.x.Y 1 s._.`.`.`.`.`.`.`.`.`.`.`.",
"`.`.`.`.`.`.`.`.`.`.`.`.`.`.`.`.).k.3 I I Z V ;.S.( : t.(.`.`.`.`.`.`.`.`.`.`.`.",
"`.`.`.`.`.`.`.`.`.`.`.`.`.`.`.).l.5 I Z Z + O O O O O O z !.`.`.`.`.`.`.`.`.`.`.",
"`.`.`.`.`.`.`.`.`.`.`.`.`.`.~.s.5 L s O O O O   O O O O + a.`.`.`.`.`.`.`.`.`.`.",
"`.`.`.`.`.`.`.`.`.`.`.`.`.`.K.% H D O O 5 k k y h k *   f h.`.`.`.`.`.`.`.`.`.`.",
"`.`.`.`.`.`.`.`.`.`.`.`.`.`.U.R ) s O 7 [ _.J.v.Z.^.x g J.`.`.`.`.`.`.`.`.`.`.`.",
"`.`.`.`.`.`.`.`.`.`.`.`.`./.A.X.C.O $ o.>._.* C.f j.n.n.W.`.`.`.`.`.`.`.`.`.`.`.",
"`.`.`.`.`.`.`.`.`.`.`.`.`.Y.{ B z.O + ~ Y./.Q c.' U.R.%.N.`.`.`.`.`.`.`.`.`.`.`.",
"`.`.`.`.`.`.`.`.`.`.`.`._./.c.C | 7 # _ Y.d.}  .v.B.B./ M.`.`.`.`.`.`.`.`.`.`.`.",
"`.`.`.`.`.`.`.`.`.`.`.`.`.`.E.E ! | T V.-.@ - m ! m E t ` L.`.`.`.`.`.`.`.`.`.`.",
"`.`.`.`.`.`.`.`.`.`.`.`.`.`.!.l $ ! o.o.` ` @ O   O O O h K.`.`.`.`.`.`.`.`.`.`.",
"`.`.`.`.`.`.`.`.`.`.`.`.`.`.`.!.z $ C o.b.V.W m m v , k L.`.`.`.`.`.`.`.`.`.`.`.",
"`.`.`.`.`.`.`.`.`.`.`.`.`.`.`.!.z   , P ] m m N M C =.W.`.`.`.`.`.`.`.`.`.`.`.`.",
"`.`.`.`.`.`.`.`.`.`.`.`.`.`.I.l O + S P 4 4 , -.m.m.n.E.`.`.`.`.`.`.`.`.`.`.`.`.",
"`.`.`.`.`.`.`.`.`.`.`.`.`.`.j.O + A U Y F v n.'.`.`.S.f.T.`.`.`.`.`.`.`.`.`.`.`.",
"`.`.`.`.`.`.`.`.`.`.`.`.`.`.K.O % J P Y Y n W.`.`.`.`.=.N.`.`.`.`.`.`.`.`.`.`.`.",
"`.`.`.`.`.`.`.`.`.`.`.`.`.`.K.& i 1 H K Y G *.^.`.`.M.m.W.`.`.`.`.`.`.`.`.`.`.`.",
"`.`.`.`.`.`.`.`.`.`.`.`.`.P.$.+.a i 1 H K 1 : ^ *.*.N.W.`.`.`.`.`.`.`.`.`.`.`.`.",
"`.`.`.`.`.`.`.`.`.`.`.`.`.h.9 #.,.4.i < <   e.t.t.j 0.Q.`.`.`.`.`.`.`.`.`.`.`.`.",
"`.`.`.`.`.`.`.`.`.`.`.`.`.h.9 #.2.8.4.d w.w.p.i.i.y.3.H.`.`.`.`.`.`.`.`.`.`.`.`.",
"`.`.`.`.`.`.`.`.`.`.`.`.`.h.9 @.p 3.7.7.y.p.i.9.u.4.F.(.`.`.`.`.`.`.`.`.`.`.`.`.",
"`.`.`.`.`.`.`.`.`.`.`.`.`.h.9 @.& <.7.7.7.y.y.1.6.1.J.`.`.`.`.`.`.`.`.`.`.`.`.`.",
"`.`.`.`.`.`.`.`.`.`.`.`.j.u O.0 $ y 1.1.1.1.1.<.2.G.(.`.`.`.`.`.`.`.`.`.`.`.`.`.",
"`.`.`.`.`.`.`.`.`.`.`.`.g.w @.  q q r r r r t & e f K.`.`.`.`.`.`.`.`.`.`.`.`.`.",
"`.`.`.`.`.`.`.`.`.`.`.h.u O.o . q q X q b b q ;.e &.c k.`.`.`.`.`.`.`.`.`.`.`.`.",
"`.`.`.`.`.`.`.`.`.`.`.s.  o O         . . . . > + = @ g.`.`.`.`.`.`.`.`.`.`.`.`.",
"`.`.`.`.`.`.`.`.`.`.`.).!.!.I.I.!.!.!.!.I.!.!.!.!.!.W.).`.`.`.`.`.`.`.`.`.`.`.`.",
"`.`.`.`.`.`.`.`.`.`.`.`.`.`.`.`.`.`.`.`.`.`.`.`.`.`.`.`.`.`.`.`.`.`.`.`.`.`.`.`.",
"`.`.`.`.`.`.`.`.`.`.`.`.`.`.`.`.`.`.`.`.`.`.`.`.`.`.`.`.`.`.`.`.`.`.`.`.`.`.`.`.",
"`.`.`.`.`.`.`.`.`.`.`.`.`.`.`.`.`.`.`.`.`.`.`.`.`.`.`.`.`.`.`.`.`.`.`.`.`.`.`.`.",
"`.`.`.`.`.`.`.`.`.`.`.`.`.`.`.`.`.`.`.`.`.`.`.`.`.`.`.`.`.`.`.`.`.`.`.`.`.`.`.`.",
"`.`.`.`.`.`.`.`.`.`.`.`.`.`.`.`.`.`.`.`.`.`.`.`.`.`.`.`.`.`.`.`.`.`.`.`.`.`.`.`."
};
