/* XPM */
static char *result[] = {
/* columns rows colors chars-per-pixel */
"40 40 180 2 ",
"   c #0E0703",
".  c #140D06",
"X  c #3A2719",
"o  c #523B2A",
"O  c #584815",
"+  c #7A690D",
"@  c #645120",
"#  c #604A34",
"$  c #897418",
"%  c #927C22",
"&  c #807140",
"*  c #8F7946",
"=  c #98840F",
"-  c #9D881E",
";  c #9C8719",
":  c #A28D13",
">  c #A18B1A",
",  c #B29D12",
"<  c #BCA500",
"1  c #BEA802",
"2  c #BFAA0B",
"3  c #BDA611",
"4  c #9B8827",
"5  c #A5922C",
"6  c #B49C37",
"7  c #A89734",
"8  c #C3AC00",
"9  c #C8AF01",
"0  c #C7B001",
"q  c #CCB301",
"w  c #CCB409",
"e  c #D1B703",
"r  c #D4BA03",
"t  c #D9BE04",
"y  c #D2B60A",
"u  c #D6BB0C",
"i  c #D9BE09",
"p  c #C1AC14",
"a  c #DABC12",
"s  c #D6BB13",
"d  c #C7B42B",
"f  c #CDBA2D",
"g  c #D5BF27",
"h  c #DDC204",
"j  c #DCC20C",
"k  c #DFC312",
"l  c #DEC51D",
"z  c #E1C506",
"x  c #E5C906",
"c  c #E9CE07",
"v  c #E2C60D",
"b  c #E6CA0B",
"n  c #E9CE0B",
"m  c #EED20C",
"M  c #E2C513",
"N  c #EACD14",
"B  c #E6CA19",
"V  c #EACE1A",
"C  c #E5C718",
"Z  c #EED311",
"A  c #EFD31B",
"S  c #F1D514",
"D  c #F3D817",
"F  c #F2D61C",
"G  c #F4DA1C",
"H  c #F4E019",
"J  c #F9E31E",
"K  c #DAC42A",
"L  c #D5C032",
"P  c #D8C435",
"I  c #E6CD20",
"U  c #E1CA2A",
"Y  c #EED423",
"T  c #E9D22F",
"R  c #F1D622",
"E  c #F7DD24",
"W  c #F5DC2B",
"Q  c #F8DD25",
"!  c #E0CC34",
"~  c #F2DC34",
"^  c #FAE424",
"/  c #FDE927",
"(  c #F9E32D",
")  c #FDEA2C",
"_  c #FFF427",
"`  c #FFF927",
"'  c #FFF32D",
"]  c #FFFD2B",
"[  c #F7E033",
"{  c #FAE434",
"}  c #FEEC33",
"|  c #FBE739",
" . c #FEEC3C",
".. c #FFF433",
"X. c #FFF935",
"o. c #FEF43D",
"O. c #FFFB3C",
"+. c #B3A252",
"@. c #9C8973",
"#. c #AE9E65",
"$. c #CAB845",
"%. c #DFCC4C",
"&. c #DDCA42",
"*. c #DFCD54",
"=. c #D2C356",
"-. c #E1CA40",
";. c #EEDB4C",
":. c #F2DE47",
">. c #E8D651",
",. c #EDDE57",
"<. c #E4D158",
"1. c #FEED40",
"2. c #F5E34C",
"3. c #FFF344",
"4. c #FFFB44",
"5. c #FFF549",
"6. c #FFFC4C",
"7. c #FAEF57",
"8. c #FFFB54",
"9. c #FDF75E",
"0. c #FFFB5B",
"q. c #DACF77",
"w. c #EAD96D",
"e. c #E5D877",
"r. c #E8DB7E",
"t. c #F0DF74",
"y. c #FDF464",
"u. c #FFFD64",
"i. c #FEFB6D",
"p. c #FDF573",
"a. c #FFFC74",
"s. c #FFFD7B",
"d. c #BDAC9A",
"f. c #EDDF82",
"g. c #E0D68B",
"h. c #EBDF8E",
"j. c #E6DB89",
"k. c #EFE283",
"l. c #EFE38B",
"z. c #F1E289",
"x. c #FEFB86",
"c. c #FFFC8D",
"v. c #FBF18E",
"b. c #EBE098",
"n. c #EDE193",
"m. c #F2E794",
"M. c #FFFC93",
"N. c #FFFD9B",
"B. c #CDC2B1",
"V. c #D6CCBF",
"C. c #E7E0A6",
"Z. c #EEE5A5",
"A. c #EAE3AE",
"S. c #F0E7A0",
"D. c #F5ECAC",
"F. c #F8EFA9",
"G. c #F4E9A3",
"H. c #FEFBA4",
"J. c #EBE5B2",
"K. c #F4ECB3",
"L. c #F3EDBD",
"P. c #FDF6B0",
"I. c #FEFAB4",
"U. c #FAF3BB",
"Y. c #D9D1C8",
"T. c #F4EDC1",
"R. c #F6F0CA",
"E. c #F9F4CF",
"W. c #FEFCC6",
"Q. c #E9E3DB",
"!. c #F5F2D3",
"~. c #FCF7D0",
"^. c #F9F6DD",
"/. c #FEFDDC",
"(. c #FEFDD2",
"). c #FAF7E3",
"_. c #FCFAE4",
"`. c #FDFCEC",
"'. c #FEFEF6",
"]. c #FFFFFF",
/* pixels */
"].].].].].].].].].].].].].].].].].].].].].].].].].].].].].].].].].].].].].].].].",
"].].].].].].].].].].].].].].].].].].].K.I.].].].].].].].].].].].].].].].].].].].",
"].].].].].].].].].].].].].].].].].].).T 0.W.].].].].].].].].].].].].].].].].].].",
"].].].].].].].].].].].].].].].].].].r.W 0.i.'.].].].].].].].].].].].].].].].].].",
"].].].].].].].].].].].].].].].].].E.l { 0.4.H.].].].].].].].].].].].].].].].].].",
"].].].].].].].].].].].].].].].].].<.v | 0.6.4.'.].].].].].].].].].].].].].].].].",
"].].].].].].].].].].].].].].].].^.u B | 8.6.O.M.].].].].].].].].].].].].].].].].",
"].].].].].].].].].].].].].].].].*.h Y  .6.6.O.X./.].].].].].].].].].].].].].].].",
"].].].].].].].].].].].].].].].L.u b W 1.5.6.4.X.p.].].].].].].].].].].].].].].].",
"].].].].].].].].].].].].].].].%.t V W 1.5.4.4..._ I.].].].].].].].].].].].].].].",
"].].].].].].].].].].].].].].Z.r z R ~ 1.3.3.3...' 3.].].].].].].].].].].].].].].",
"].].].].].].].].].].].].].].K h b Q { 1.1.4.o...' _ c.(./._.`.].'.].].].].].].].",
"].].].].].].].].].].].].].h.h x F W  . .1. .o.....' ` ] O.4.4.4.6.0.0.u.i.i./.].",
"].].].].].].].].].].].`.v.D J ( ( | 1.1. . .} } ) ..X.O.0.0.u.u.u.u.0.4...2.`.].",
"].].].].].].].].'.P.y._ X.4.0.0.8.8.8.5.1. .} } } ' ..O.4.0.0.0.6.O.X.) D E.].].",
"].].].].].'.I.p.o.4.9.a.x.c.M.c.s.u.8.3. .} } ) } ) ' ..X.O.O.O...' ^ Z l.].].].",
"].].].W.x.9.u.s.c.M.N.N.N.M.M.s.u.8.5. .} { { ) ) K 7 [ ' ..) ' / J Z >.].].].].",
"]._.,.7.y.i.a.s.a.a.s.a.a.i.u.8.5.1. .! & L ( ( ( 4 B.P ) ) ^ ^ G m U ^.].].].].",
"].].n.w u B Y W ~ { | 1. . . .1. . .{ 5 V.+.( ( ( % Q.$.^ ^ G D m j L.].].].].].",
"].].].l.w 9 q u M B V Y W W W ( ( W W 4 Y.#.Q Q Q ; d.6 G G S n h e.].].].].].].",
"].].].].m.u 8 8 0 w h j M B V Y R R F - @.* Y R E > # % F Z n z &.].].].].].].].",
"].].].].].G.i e 8 8 0 q e i v M B V B ; o @ A A F : X $ N n x l ).].].].].].].].",
"].].].].].].G.M y 8 1 8 9 9 e i j M M : X O B Z N , . : n b z m.].].].].].].].].",
"].].].].].].].K.j r 0 8 8 8 e e t i j 3   + v v b M = j b b I ].].].].].].].].].",
"].].].].].].].].K.v r q 8 8 9 e e j u j , k h j v b v b n c ;.].].].].].].].].].",
"].].].].].].].].].t.M k y 9 9 q r r j j j h h h h h z x b c :.].].].].].].].].].",
"].].].].].].].].].z.C C y 9 q e r r h h h r h r t h h h x n ~ ].].].].].].].].].",
"].].].].].].].].].f.C a 9 q q e w h r r h r r r r t t h x n D ].].].].].].].].].",
"].].].].].].].].].w.M y e w r w r r r r r e e e e e e h h c m '.].].].].].].].].",
"].].].].].].].].].<.a y r r r r r r r r q q q 0 0 0 q e h h m _.].].].].].].].].",
"].].].].].].].].].! u y r r r r r r q q 8 1 < < < 1 8 q e h c ~.].].].].].].].].",
"].].].].].].].].].K y u r w e q q q 0 1 < 1 8 1 < < < 8 0 t x U.].].].].].].].].",
"].].].].].].].].].s y u y q q q 9 8 1 d C.S.%.q 8 8 1 < 1 q h F.].].].].].].].].",
"].].].].].].].].`.u u e e q q 8 1 p g.].].].].^.f.g 8 8 < 1 r m.].].].].].].].].",
"].].].].].].].].^.y u e q 8 8 1 =.).].].].].].].].].K.*.w 1 8 k.].].].].].].].].",
"].].].].].].].].R.u e q 9 8 d J.].].].].].].].].].].].].).j.f b.].].].].].].].].",
"].].].].].].].].L.u q 8 p q.'.].].].].].].].].].].].].].].].].].].].].].].].].].",
"].].].].].].].].D.u 8 $.!.].].].].].].].].].].].].].].].].].].].].].].].].].].].",
"].].].].].].].].T.f C.].].].].].].].].].].].].].].].].].].].].].].].].].].].].].",
"].].].].].].].].].].].].].].].].].].].].].].].].].].].].].].].].].].].].].].].]."
};
