/* XPM */
static char *result[] = {
/* columns rows colors chars-per-pixel */
"40 40 252 2 ",
"   c #EFEFEF",
".  c gray97",
"X  c #FDFDFD",
"o  c #747474",
"O  c #040404",
"+  c #020202",
"@  c black",
"#  c gray59",
"$  c white",
"%  c gray39",
"&  c #A9A9A9",
"*  c #FEFEFE",
"=  c gray98",
"-  c gray31",
";  c gray1",
":  c #070707",
">  c gray2",
",  c #1B1B1B",
"<  c gray75",
"1  c gray91",
"2  c gray24",
"3  c #060606",
"4  c #010101",
"5  c #232323",
"6  c gray81",
"7  c gray86",
"8  c gray42",
"9  c gray51",
"0  c gray67",
"q  c #A7A7A7",
"w  c #A2A2A2",
"e  c #9A9A9A",
"r  c gray44",
"t  c #515151",
"y  c gray30",
"u  c #898989",
"i  c #B1B1B1",
"p  c #B2B2B2",
"a  c gray65",
"s  c gray62",
"d  c #686868",
"f  c #848484",
"g  c #9F9F9F",
"h  c gray63",
"j  c #ACACAC",
"k  c gray68",
"l  c #646464",
"z  c gray32",
"x  c gray37",
"c  c gray54",
"v  c #9B9B9B",
"b  c #A0A0A0",
"n  c #AAAAAA",
"m  c #FBFBFB",
"M  c gray99",
"N  c #CECECE",
"B  c gray16",
"V  c #808080",
"C  c #E2E2E2",
"Z  c gray82",
"A  c #C6C6C6",
"S  c #C0C0C0",
"D  c gray57",
"F  c #565656",
"G  c gray6",
"H  c #D5D5D5",
"J  c gray77",
"K  c gray78",
"L  c #E1E1E1",
"P  c #4C4C4C",
"I  c #C3C3C3",
"U  c #CBCBCB",
"Y  c #D8D8D8",
"T  c #DADADA",
"R  c gray25",
"E  c #313131",
"W  c gray47",
"Q  c #AEAEAE",
"!  c #C8C8C8",
"~  c #2C2C2C",
"^  c #7B7B7B",
"/  c #D0D0D0",
"(  c gray15",
")  c #797979",
"_  c #D2D2D2",
"`  c gray61",
"'  c #A5A5A5",
"]  c #181818",
"[  c gray60",
"{  c #CACACA",
"}  c #979797",
"|  c gray69",
" . c #5D5D5D",
".. c #9D9D9D",
"X. c #C1C1C1",
"o. c #C5C5C5",
"O. c gray17",
"+. c gray49",
"@. c #F8F8F8",
"#. c #7C7C7C",
"$. c gray50",
"%. c #6D6D6D",
"&. c #838383",
"*. c #D7D7D7",
"=. c #5A5A5A",
"-. c #191919",
";. c gray76",
":. c #A4A4A4",
">. c gray46",
",. c #888888",
"<. c gray72",
"1. c gray22",
"2. c gray88",
"3. c gray80",
"4. c gray85",
"5. c gray64",
"6. c gray7",
"7. c gray8",
"8. c #0C0C0C",
"9. c gray36",
"0. c #727272",
"q. c gray66",
"w. c gray79",
"e. c #939393",
"r. c #2A2A2A",
"t. c #161616",
"y. c gray14",
"u. c #0B0B0B",
"i. c #5B5B5B",
"p. c #B9B9B9",
"a. c #7E7E7E",
"s. c gray74",
"d. c gray48",
"f. c #959595",
"g. c gray20",
"h. c #585858",
"j. c #252525",
"k. c #1E1E1E",
"l. c gray23",
"z. c #484848",
"x. c #434343",
"c. c gray19",
"v. c #282828",
"b. c gray53",
"n. c gray18",
"m. c gray11",
"M. c gray28",
"N. c gray43",
"B. c gray55",
"V. c gray56",
"C. c DimGray",
"Z. c gray73",
"A. c #626262",
"S. c gray93",
"D. c #818181",
"F. c gray84",
"G. c #777777",
"H. c #494949",
"J. c #909090",
"K. c gray89",
"L. c #3F3F3F",
"P. c #090909",
"I. c gray58",
"U. c #EEEEEE",
"Y. c #B7B7B7",
"T. c gray90",
"R. c #F1F1F1",
"E. c gray94",
"W. c #E7E7E7",
"Q. c #989898",
"!. c #F3F3F3",
"~. c #4E4E4E",
"^. c #464646",
"/. c #EAEAEA",
"(. c #F9F9F9",
"). c #E4E4E4",
"_. c gray29",
"`. c #606060",
"'. c gray3",
"]. c #DDDDDD",
"[. c gray",
"{. c gray87",
"}. c #0E0E0E",
"|. c #3A3A3A",
" X c gray52",
".X c LightGray",
"XX c gray92",
"oX c #E6E6E6",
"OX c gainsboro",
"+X c #BBBBBB",
"@X c #3C3C3C",
"#X c #DFDFDF",
"$X c gray70",
"%X c gray95",
"&X c #131313",
"*X c #3E3E3E",
"=X c #8D8D8D",
"-X c gray13",
";X c #656565",
":X c gray34",
">X c #393939",
",X c gray27",
"<X c #505050",
"1X c #4B4B4B",
"2X c #535353",
"3X c #6A6A6A",
"4X c gray35",
"5X c gray38",
"6X c #868686",
"7X c #E9E9E9",
"8X c gray5",
"9X c gray21",
"0X c #6F6F6F",
"qX c gray4",
"wX c #8B8B8B",
"eX c #717171",
"rX c #F6F6F6",
"tX c #B4B4B4",
"yX c #929292",
"uX c #414141",
"iX c #272727",
"pX c #202020",
"aX c #767676",
"sX c #444444",
"dX c #2F2F2F",
"fX c gray10",
"gX c #F4F4F4",
"hX c #222222",
"jX c gray45",
"kX c #323232",
"lX c #373737",
"zX c #B6B6B6",
"xX c #1D1D1D",
"cX c #CDCDCD",
"vX c #BCBCBC",
"bX c #5F5F5F",
"nX c #353535",
"mX c #6C6C6C",
"MX c gray33",
"NX c gray26",
"BX c gray83",
"VX c #AFAFAF",
"CX c #151515",
"ZX c #101010",
"AX c #111111",
"SX c gray9",
"DX c #676767",
"FX c #8E8E8E",
"GX c gray71",
"HX c #343434",
"JX c #2D2D2D",
"KX c gray40",
/* pixels */
"  . X . o O O + @ @ # $ $ % @ @ @ @ @ & * = - ; : + > , < $ 1 2 ; 3 ; 4 5 6 $ $ ",
"= = 7 8 9 & 0 q w e r t y u i p a s s d y y f g h j k w l z x c v b n j s x w m ",
"X M N B V C Z A S < D F G D C H J K L P @ ; e H I U Y T R E W Q < < ! 7 U ~ ^ X ",
"= M / ( ) _ 0 g ` b J ' ] u A ` # j C y 4 ; [ { ' } | H R  ._ i h ..h X.o.O.+.$ ",
"@.m Z ~ #.6 b h ' ` I a G $.p %.&.q *.=.] -.} ;.:.>.,.<.1.% 2.i g g w X.o.O.+.$ ",
"* M 3.5 +.4.k h s g X.5.] 6.7.8.9.9 0.q.o.w.e.) >.r.t.y.u.i.*.| h g v p.< ~ a.* ",
"$ *   s.W z d.f.` 9 =.g.G %.0 0 h.j.k.l.z.x.c.j.v.b.Q h n.m.M.N.B.s V.C.z g Y $ ",
"$ M = * Z.r R d d.R A.$.$.s J S.q.a.+.D.V ^ #.+.D.N F.j c a.G.H.9.D.t x J.K.M X ",
"X = @.M *.s t P L.P.I.@.U.Y.0 L   1 N T.R.U.*.T E.W.I Q.Y !.L 2 j.~.^.G.s./.= X ",
"= M (.).d._.A `.'.m.v S.2.K.L 4.].[.o [.K.{.s w ].K.K.{.{.K.Y _.}.-.j &.|.< E.* ",
"m m Z |. X_ q _.2 .XXXoX_ OX).T.W.L _ ).W.T .X*.oXL 7 .X{.W.S.C a.7.#.+XJ M.B.(.",
"* * 6 j.^ F.j _.@X#XU.oX{.[.j $Xi [.7 X.p i Z Z Y.$X| p T ).#X%XB.&X9 X.I n.a.X ",
"M * 6 y.=.h J.*X1.*.T.I ) V b.&. X[ [.< < < X.k b.b.u c #.b {./.b.7.r Q.=X-X+.M ",
"M M 7 ;X- :X8 E >XY F.v r.,X:X_.<XC.f.s.6 3.' W 1X<X2X<Xc.3XZ C  X6.4X5X<XP h M ",
"* = . M f r.4X~ 2 L S V.0.n.O @ ; y.C.c v ..>.L.4 '.: '.=.6Xb ].,.8.~.^.R U @.$ ",
"(.m m   7X+Xg.8X9X/ n ,.[ @X@ @ @ O 8.y 0X0X~ qX> + + }.0XwX XK $.3 qXeX7X!.= $ ",
"rXm * = ..x V.x.|.7 tXyXq uX+ > + @ @ m.iXpXu.; : + 4 8.$.b } _  X] aXG.N.].rXE.",
"= @.L J.+.,.p t >X4.[.s a sX3 O 2X$.#.dX> + 2X#.a.j.@ qXd.h w Y 6XfX} b a.&.+XgX",
"* (.K hXV {.0 M.9X/ [.w s `.B O h (.rXjXc.kX<.. R.H.7.lX$...' F.&.t. Xo.K E a.m ",
"* $ 6 5 d.F.k H.9X6 zX} Q.v G.xXs 7X1 p.b g 4.R.).z 1Xw w h :.cX$.fXD.vXs.B G.%X",
"= M 6 5 ) _ a ,X9X6 a  Xs w b } w a h q.q g g h w f.Q.' [ ,.a.S ) 6.) I _ E a.* ",
"m = cXn.y &.&.@X@XT zXI.' bXE kXE F q b s 5.5.d.g.E E >X9 e ..OX,.}.`.b.D.xX^ = ",
"* M oX[ h.2 %.nX|.F.s.c =.mX^ $.dXm.F - y z MXlX'.9.$.#. .0.q OXb.G =.F uX0.vXM ",
"$ $ * $ g y t y.nXcXvXW 8.C.k tXx.-.P P kX4 g.c.'.$.p q c.NX5.Z V 8.uX- ;X{.* X ",
"* X M * E.p.dXu.9XcXp.o qX4 + > + z.K.L I.O e V.; ; + @ > x.b BX9 O &XG.7X= M = ",
"= = (.(.9 R VX4Xl./ :.h.: : P.4 > 8X-.-.7.8.CXZX4 3 > 4 4 c.#.o.D.pX& +.>X/ M * ",
"X X OX% 9 $XY.z ( =X$.z AX3 ; @ + |.i k 0.3 d.| n nX+ @ @ dXaXc 2XSX=Xi 5.% a $ ",
"X m { 5 V {.0 M.r.s Q.DXZXt V V dXv.a.^ <X; :Xa.a.$.$.G.-X>X=Xg bXSXa.;.U c.$.$ ",
"X (.! y.;Xp f.NXc.0 Q 9 r.d.$Xp `.c.n.kXg.E dXE >XFXp q.z.F w GX%.] G.q w j.d.rX",
"$ * .X>X*XA.0.l.5 x f J.W lXG 8.mXb v ' a s ..w ' |.}.] 9.f f.+.uX8X4X%.bXc.9 T.",
"$ . S.W.0.5 A.E , ;X0.9 ' yX+.N.FXb g b g ` :.g =Xo +.` # b.jXr *Xu.<Xx.lXX.R.M ",
"* M m * .XD 9XAXm.3X5.VX+.D ` yX# e.b.a.#.V $.c s e v ..V } S #.2 8XfX% s.7X= $ ",
"m X X (.<.$.aXg.}.lX+.[ N.+.,. X X0XL.|.1.|.1.:XD B.b.V o u 5.<XpX7.9.G.=XL (.= ",
"@.m U.GX^ %.[.%., > n.~.<X- ~.y <XsXy.}.; @ t.HXh.t P _.F MX,X7.ZXnXj D F h *.(.",
". = cXy.&.L q ,.x CX8.P.4 6.] 8.8.JXo v.4 + H.z.8X8XAXt.6.}.qX8.>XG.Q.J 3.nX9 $ ",
"m X Z O.d./ k s c l ;X~.: #.k d DX%.>.iX4 ; <X0Xd % u vX9Xj.4XC.&.g h ! BXdX#.X ",
"* X cXj.) _ Q g } I.+.t : ,.w.# yX X8 v.O + 1X+.} B.VX#XuXn.%.b.Q.w s Z.S c.V * ",
"$ m U ~  .s =Xu ,.u  .n.O KXs =X,.a.mXiXO > P W B.f yXw dX] *X>.6Xf ,.D  XhXV $ ",
"* m T eXt H.P t 2X~.t z y ~.<Xz - - z P P z - ~.- ~.P z.1XP y 2X- H.t ~.H.P w = ",
"M X X $ aX4 @ @ @ @ B.%X* KXO @ 4 O '.w rXM t 4 @ + ; 6.+X* 7X*X; O 4 3 dX6 rXE."
};
